<?xml version="1.0" encoding="utf-8"?>
<!-- Generator: Adobe Illustrator 23.0.6, SVG Export Plug-In . SVG Version: 6.00 Build 0)  -->
<svg version="1.1" xmlns="http://www.w3.org/2000/svg" xmlns:xlink="http://www.w3.org/1999/xlink" x="0px" y="0px"
	 viewBox="0 0 1795.6 425.7" style="enable-background:new 0 0 1795.6 425.7;" xml:space="preserve">
<g id="Layer_2">
</g>
<g id="Layer_1">
	<g>
		<path style="fill:#58BA51;" d="M427,208.2c0,3.8-0.1,7.6,0,11.4c0,1.1-0.9,2.2,0,3.4c-0.4,1,0.1,2-0.3,3c0,0.9-0.1,1.9-0.1,2.8
			c-0.4,0.8,0,1.7-0.3,2.5c0,0.7-0.1,1.4-0.1,2.1c-0.4,0.7,0,1.5-0.3,2.2c0,0.5,0,0.9-0.1,1.4c-0.4,0.5,0,1.2-0.3,1.8
			c-1.4,10.7-3.3,21.3-6.1,31.7c-4,14.7-9.4,28.7-16.4,42.2c-3.9,7.6-8.2,15-13.6,22c0-1.4,0-2.7,0-4.1c-0.3-1.9,0.1-3.9-0.3-5.8
			c0.2-3.1,0-6.1-0.1-9.1c-0.2-1.4-0.2-2.8,0-4.2c1.7-3.5,4.2-6.4,5.8-9.9c2-4.5,3.4-9.3,5.3-13.8c1.8-4.2,3.2-8.5,4.6-12.9
			c1.9-5.8,3.4-11.7,4.7-17.6c1.3-6,2.4-12.1,3.1-18.2c0.5-4.4,1.2-8.8,1.1-13.2c0.3-0.7,0-1.5,0.2-2.3c0.3-6.1,0.3-12.1,0-18.2
			c-0.2-0.7,0.1-1.5-0.2-2.2c0-1.2-0.1-2.3-0.1-3.5c-0.2-0.6,0.1-1.3-0.2-1.9c0-0.7-0.1-1.4-0.1-2c-0.3-0.6,0-1.3-0.3-1.9
			c-0.5-5.3-1.2-10.5-2.2-15.7c-0.7-3.8-1.4-7.6-2.4-11.4c-1.8-6.7-3.6-13.5-6.1-20c-1.5-4.1-3.1-8.1-4.9-12.1
			c-2.2-4.9-4.5-9.7-7-14.5c-5.1-9.4-10.8-18.4-17.3-26.8c-3.2-4.2-6.6-8.3-10.1-12.3c-4.5-5.1-9.4-9.8-14.3-14.5
			c-3.8-3.6-8-6.9-12.1-10.2c-7.4-5.9-15.4-11.1-23.5-15.9c-6.5-3.9-13.3-7.2-20.3-10.2c-5.8-2.4-11.5-4.8-17.5-6.7
			c-8.5-2.7-17.1-5-25.8-6.5c-5.2-0.9-10.4-1.8-15.7-2.2c-0.6-0.3-1.3,0-1.9-0.3c-0.8,0-1.6-0.1-2.4-0.1c-0.6-0.3-1.3,0-1.9-0.3
			c-1.3,0-2.5-0.1-3.8-0.1c-0.7-0.3-1.5,0-2.3-0.2c-5.5-0.2-10.9-0.2-16.4,0c-0.7,0.2-1.5-0.1-2.3,0.2c-1.3,0-2.5,0.1-3.8,0.1
			c-0.6,0.2-1.3-0.1-1.9,0.3c-0.8,0-1.6,0.1-2.4,0.1c-0.6,0.3-1.3,0-1.9,0.3c-3.2,0.1-6.3,0.6-9.5,1.2c-0.5,0.3-1-0.1-1.5,0.3
			c-5.3,0.5-10.5,1.8-15.6,3c-4.6,1.1-9.1,2.6-13.7,3.9c-10.3,3-20.1,7.2-29.6,11.9c-11.5,5.7-22.3,12.6-32.5,20.5
			c-0.4,0.3-0.7,0.6-1,1c-0.3,0.4-0.7,0.7-1.1,0.9c-3,2-5.5,4.4-8.2,6.7c-4.6,4-8.8,8.2-13,12.6c-7.9,8.4-15.1,17.4-21.4,27
			c-4.9,7.4-9.3,15-13.2,23c-7.3,15.1-12.7,30.8-16,47.2c-1.1,5.4-2.2,10.7-2.5,16.2c-0.4,0.5,0,1.2-0.3,1.8c0,0.5,0,0.9-0.1,1.4
			c-0.4,0.6,0,1.2-0.3,1.8c0,0.8-0.1,1.6-0.1,2.4c-0.3,0.6,0,1.3-0.2,1.9c0,1.1-0.1,2.3-0.1,3.4c-0.3,0.8,0,1.8-0.3,2.6
			c-0.3,6.1-0.4,12.1,0,18.2c0.2,0.7-0.1,1.5,0.2,2.2c-0.1,4.9,0.6,9.8,1.2,14.6c1.2,9.3,3.1,18.4,5.6,27.4c1.8,6.5,3.7,12.8,6.3,19
			c1.1,2.7,0.4,5.1,0.1,7.6c-0.8,5.5-1.9,11-2.8,16.5c0,0.1-0.1,0.2-0.2,0.3c-2-3.3-3.5-6.8-5-10.3c-1.8-4.1-3.6-8.3-5.1-12.5
			c-2.1-5.8-4-11.6-5.6-17.5c-1.5-5.3-2.7-10.6-3.7-16c-0.8-4.1-1.5-8.1-2-12.3c-0.3-2.5-0.5-5.1-0.8-7.7c-0.2-0.6,0.1-1.2-0.2-1.8
			c0-0.7-0.1-1.4-0.1-2.1c-0.3-0.8,0.1-1.7-0.3-2.6c0-0.9-0.1-1.8-0.1-2.8c-0.3-1.6,0.1-3.2-0.3-4.7c0-4.4,0-8.7,0-13.1
			c0.5-1.6-0.1-3.3,0.3-5c0-0.9,0.1-1.8,0.1-2.8c0.4-0.8,0-1.7,0.3-2.6c0-0.7,0.1-1.4,0.1-2.1c0.3-0.6,0-1.3,0.2-1.9
			c0-0.7,0.1-1.4,0.1-2c0.3-0.6,0-1.3,0.3-1.9c1-8.7,2.6-17.4,4.6-25.9c1.6-6.8,3.6-13.6,5.9-20.2c1.8-5.3,3.9-10.5,6.2-15.6
			c2.3-5.1,4.6-10.1,7.3-15c4.4-8.1,9.3-15.9,14.7-23.4c3-4.1,6.1-8.1,9.3-12c2.1-2.6,4.4-5,6.6-7.5c3.4-3.8,7-7.4,10.7-10.9
			c5.1-4.8,10.5-9.4,16.1-13.7c7.4-5.8,15.1-11,23.2-15.7c7.7-4.5,15.7-8.4,23.9-12C141.8,13,154,9.2,166.6,6.3
			c7.6-1.8,15.4-3,23.1-3.9c0.6-0.3,1.2,0.1,1.8-0.3c4-0.3,8.1-0.5,12.1-0.8c1.7-0.3,3.4,0.1,5.1-0.2c3.2,0,6.5,0,9.7,0
			c0.7,0.2,1.3,0.2,2,0c0.2,0,0.3,0,0.5,0c0.8,0.3,1.8,0,2.6,0.2c1.2,0,2.3,0.1,3.5,0.1c0.8,0.4,1.7,0,2.6,0.3
			c0.8,0,1.6,0.1,2.4,0.1c0.6,0.3,1.3,0,1.9,0.2c0.6,0,1.2,0.1,1.8,0.1c0.6,0.4,1.2,0,1.8,0.3c0.5,0,0.9,0.1,1.4,0.1
			c0.6,0.4,1.3-0.1,1.8,0.3c5.3,0.9,10.7,1.6,16,2.6c4.5,0.9,9,2.1,13.5,3.3c15.1,4.1,29.6,9.9,43.4,17.2c4.6,2.4,9,5,13.4,7.8
			c5.8,3.6,11.4,7.6,16.8,11.8c0.2,0.2,0.5,0.3,0.8,0.4c0.4,0.1,0.6,0.3,0.8,0.7c1,0.9,2,1.8,3.2,2.5c0.3,0.1,0.6,0.3,0.8,0.6
			c6.9,5.9,13.6,12.1,19.9,18.8c11,11.7,20.6,24.5,28.7,38.4c0.9,1.5,1.8,3,2.7,4.5c0.4,0.2,0.5,0.7,0.6,1.1
			c1.7,3.4,3.4,6.8,5.1,10.2c5.8,12.1,10.5,24.7,13.9,37.7c2.1,7.9,3.6,15.9,4.9,23.9c0.5,3.2,0.8,6.4,1.2,9.6
			c0.2,0.6-0.1,1.3,0.2,1.9c0,0.7,0.1,1.4,0.1,2.1c0.3,0.7-0.1,1.5,0.3,2.2c0,1,0.1,2.1,0.1,3.1C427.1,204.9,426.6,206.6,427,208.2z
			"/>
		<path style="fill:#58BA51;" d="M234.9,235.2c0,8.5,0,17.1,0,25.6c0,1.3,0.4,2.2,1.3,3.1c2.4,2.4,4.8,4.8,7.2,7.1
			c0.7,0.7,1,1.4,1,2.3c0,12.9,0,25.7,0,38.6c0,0.8-0.3,1.4-0.9,2c-4.3,4.6-6.7,10-7.1,16.3c-0.2,3.8,0.5,7.4,2,11
			c-8.2-1-14.2,2.5-19,8.7c-0.1-0.1-0.3-0.1-0.4-0.2c-5.4-7.3-13.1-9-21.6-8.4c-0.6,0-1.1,0.1-1.4-0.6
			c-4.1-10.4-12.4-15.1-22.9-16.6c-1.4-0.2-1.4-0.8-1.4-1.9c0-16.3,0-32.6,0-48.9c0-0.9,0.2-1.7,0.9-2.3
			c11.4-11.4,22.8-22.8,34.2-34.2c1-1,1.4-0.7,2.2,0.1c5.4,5.4,10.8,10.8,16.2,16.2c1.6,1.6,2.4,1.5,3.5-0.1c0.3-3,0.1-6,0.1-9
			c0-2.6,0-5.2,0-7.8c0-1,0.3-1.4,1.3-1.3C231.8,235.2,233.4,234.9,234.9,235.2z"/>
		<path style="fill:#58BA51;" d="M226.9,231.6c-1.4,0.2-1.5,1.3-1.5,2.4c0,3.9,0,7.7,0,11.6c0,0.6,0,1.3,0,2.4
			c-0.7-0.7-1.2-1.1-1.6-1.5c-4.6-4.6-9.2-9.2-13.8-13.8c-1.6-1.6-2.2-1.6-3.8,0c-4.9,4.9-9.9,9.9-14.8,14.8c-0.4,0.4-0.7,1-1.5,1.1
			c0-1.9,0-3.8,0-5.7c0-24.6,0-49.3,0-73.9c0-1.1,0.4-2.3-1.1-2.8c-0.6-0.3-1.3-0.2-1.9-0.2c-7.8,0-15.6,0-23.4,0
			c-0.6,0-1.3,0.4-1.8-0.3c0-0.6,0.1-1.3,0.1-1.9c0-6.7,0.1-13.4,0-20.1c0-2,0.6-3.4,2.1-4.7c4.2-3.6,8.2-7.3,12.4-10.9
			c3.2-2.8,6.3-5.6,9.5-8.4c3-2.7,6.1-5.3,9-8c0.9-0.8,1.4-0.2,1.9,0.3c2.5,2.1,4.9,4.3,7.3,6.5c8.1,7.2,16.3,14.4,24.4,21.6
			c0.9,0.8,1.2,1.7,1.2,2.9c0,28.8,0,57.5,0,86.3c0,0.7,0,1.4,0,2.1C228.7,231.8,227.7,231.2,226.9,231.6z"/>
		<path style="fill:#58BA51;" d="M113.1,202c0,5.8-0.1,11.6-0.1,17.4c0,1.8-0.5,2.8-2.1,3.8c-13.3,8-26.5,16.2-39.8,24.3
			c-1.3,0.8-1.8,1.7-1.8,3.2c0.1,4.1,0,8.2-0.1,12.3c0,1.3,0.4,2.2,1.3,3.1c7.3,7.9,13.2,16.6,15.6,27.3c2.4,10.4-0.1,19.6-7,27.7
			c-3.3,3.9-7.1,7.2-11.9,9.3c-3,1.3-5.9,3.1-8.4,5.3c-0.8,0.7-1.5,0.5-2.3,0.2c-2.6-1-4.4-2.9-6.1-5.1c-3-4-5-8.6-6.4-13.4
			c-1.4-5.1-3.7-9.9-5.8-14.6c-1.5-3.5-2.5-7.1-3-10.8c-0.2-1.2-0.4-2.4-0.5-3.6c-0.3-0.5,0-1.1-0.3-1.6c-0.5-4.8-0.4-9.5-0.4-14.3
			c0.3-0.6,0-1.3,0.2-1.9c0.4-8.4,3.5-16.2,6.1-24c2.2-6.7,4.9-13.2,9.1-18.9c4.2-5.8,9.5-10.4,15.7-13.8
			c10.2-5.7,21.3-8.9,32.8-10.9c3.3-0.6,6.5-0.8,9.8-1.1C109.6,201.7,111.4,201.2,113.1,202z"/>
		<path style="fill:#58BA51;" d="M233.1,231.3c0-46.6,0-93.2,0-139.8c0.5-0.3,1-0.2,1.6-0.2c9.1,0,18.3,0,27.4,0
			c1.5,0,1.8,0.4,1.8,1.9c0,46.2,0,92.4,0,138.6c0,0.6,0.2,1.2-0.2,1.7c-2.1,0-4.1,0-6.2,0c-2.1,0-2.6,0.5-2.6,2.6
			c0,13.2,0,26.4,0,39.7c0,1.6-0.3,2.1-1.9,1.9c-1.3-0.1-2.6-0.1-3.9,0c-0.8,0-1.1-0.3-1-1c0-0.2,0-0.4,0-0.5c0.7-4-0.8-6.9-3.9-9.4
			c-2-1.7-4.5-3.4-5.4-5.8c-0.8-2.3-0.2-5.1-0.2-7.8c0-6.4,0-12.8,0-19.2c0-1,0-2.1-1.4-2.3C235.8,231.2,234.4,231.8,233.1,231.3z"
			/>
		<path style="fill:#58BA51;" d="M26.3,329.8c0-0.8-0.1-1.6-0.1-2.5c-0.2-2.5-0.2-5,0-7.4c0.5-10.5,3.2-20.7,4.8-31
			c0.9,7.4,3.3,14.2,6.5,20.8c1.8,3.6,2.6,7.6,4,11.4c1.8,4.8,3.9,9.4,7.3,13.3c2.2,2.5,4.7,4.5,8,5.3c1.5,0.4,2.6,0.2,3.9-0.9
			c3.8-3.4,8.5-5.6,13.1-7.7c10.5-4.8,21.3-8.5,32.2-12.2c6.8-2.3,13.5-2.4,20.1,0.2c6.5,2.5,11.4,7,12.6,14.2
			c1,5.8-0.6,11.1-5.3,15c-14.7,12.1-30.6,22.5-47.5,31.4c-2.2,1.2-4.5,2.3-6.7,3.5c-0.6,0.2-1.2,0.2-1.7,0
			c-9.5-1.2-17.9-4.9-25.6-10.6c-3.1-2.3-6-4.8-8.8-7.4c-0.9-0.8-1.6-1.8-2.4-2.8c-0.3-0.3-0.7-0.6-1-1c-3.1-3.7-6.2-7.5-8.3-11.8
			c-2.2-4.5-3.7-9.3-4.5-14.3c-0.2-1.2-0.2-2.3-0.4-3.5C26.3,331.1,26.7,330.4,26.3,329.8z"/>
		<path style="fill:#58BA51;" d="M308.8,405.3c-2.7-0.2-5.4,0.2-8.1-0.3c-0.9-0.2-1.4-0.5-1.9-1.1c-5.9-7.3-12.1-14.3-18.4-21.4
			c-11.6-13-23.1-26.2-35.7-38.3c-2.9-2.8-4.1-6.6-4.4-10.6c-0.8-9.8,3.9-16.7,11.7-21.8c9.3-6,19-5.1,27.4,2.2
			c4,3.5,7,7.8,10.4,11.9c11.7,14.3,23.5,28.4,36.5,41.5c4,4.1,8.2,8.1,12.9,11.4c0.8,0.6,1.2,1.2,1,2.2c-0.3,1.8-0.4,3.5-0.3,5.3
			c-0.5,0.8,0.2,1.7-0.4,2.5c-7.1,9.5-16.6,14.9-28.4,16.1C310.3,405.3,309.5,405,308.8,405.3z"/>
		<path style="fill:#58BA51;" d="M385.9,353c-0.7,4-2.8,7.3-5.3,10.4c-4.3,5.2-9.6,9.3-15.6,12.3c-5.1,2.5-10.4,3.7-16,3.3
			c-0.4-0.3-1,0.1-1.5-0.3c-2.6-0.5-5-1.5-7-3.1c-9.7-8-18.2-17.3-26.5-26.7c-8-9.1-15.6-18.5-23.4-27.7c-3.2-3.8-3.5-8-2.7-12.3
			c1.9-10.3,12.1-17.5,22.5-16.4c8.2,0.8,14.7,4.9,20.6,10.2c11.3,10.1,22.5,20.3,33.5,30.8c2.4,2.3,4.9,2.2,7.7,1.7
			c3.5-0.7,6-2.9,8.1-5.7c1.9-2.5,3.1-5.3,4.2-8.2c0.3-0.7,0.4-1.4,1.3-2.1c0.1,1.3,0.1,2.3,0.2,3.3c0.2,2.4,0,4.7,0.1,7.1
			c0,0.6-0.1,1.3,0.1,1.9c0,5.7,0,11.5,0,17.2C385.7,350.1,386.1,351.6,385.9,353z"/>
		<path style="fill:#58BA51;" d="M112.1,409.3c-5.8-0.4-11.4-1.7-16.5-4.4c-7.4-3.9-12.1-10.1-14.4-18.2c-0.3-1,0.6-1,1.1-1.3
			c5.3-2.5,10.4-5.3,15.5-8.2c13.6-7.9,26.5-16.7,38.6-26.6c3.1-2.5,4.5-6,5.7-9.6c0.3-0.8,0.4-1.7,1.1-2.3
			c5.8-5.3,12.3-9.3,20.1-10.6c7.4-1.3,14.6-0.2,21,3.9c7.9,5.1,10.8,12.4,8.9,21.6c-0.5,2.6-1.8,4.5-3.7,6.3
			c-18.6,16.6-38.1,32.2-57.4,48.1c-1.7,1.4-3.5,0.8-5.2,1.3c-0.6,0.2-1.3,0.1-1.9,0.2c-0.6,0.2-1.3-0.1-1.9,0.2c-2.7,0-5.3,0-8,0
			C114.1,409.2,113.1,409.6,112.1,409.3z"/>
		<path style="fill:#58BA51;" d="M331.3,196.1c0,12.7,0,25.4,0,38.1c0,2.4,0.5,2.8,2.9,2.9c3.3,0,6.5,0,9.8,0c1.1,0,1.4,0.3,1.4,1.4
			c0,11.3,0,22.5,0,33.8c0,0.6-0.1,1.1-0.4,1.7c-5.7,10-6.7,20.5-4.2,31.6c0.1,0.3,0.3,0.7,0,1.1c-3.3-2.9-6.5-5.9-9.9-8.6
			c-2.1-1.6-2.8-3.4-2.7-6c0.2-6.9,0.1-13.8,0.1-20.6c0-2.3-0.5-2.8-2.8-2.8c-15.2,0-30.5,0-45.7,0c-1.9,0-2.5,0.6-2.6,2.5
			c0,1.8,0,3.6,0,5.3c0,0.9-0.2,1.2-1.2,1.2c-5.4-0.1-10.8-0.1-16.2,0c-1.2,0-1.3-0.5-1.3-1.5c0-12.5,0-25,0-37.5
			c0-1.4,0.5-1.6,1.7-1.6c7.4,0.1,14.7,0,22.1,0c2.7,0,3.3-0.6,3.3-3.3c0-12.5,0-25,0-37.5c1.2-0.5,2.4-0.2,3.6-0.2
			c2.3-0.1,4.6,0,6.9,0c0.4,0,1-0.3,1.2,0.3c0,0.5-0.1,1.1-0.1,1.6c0,12,0,24,0,36c0,2.9,0.2,3.1,3.1,3.1c5.6,0,11.1,0,16.7,0
			c1.3,0,2.2-0.3,2.8-1.4c0.3-0.6,0.1-1.3,0.1-1.9c0-12,0-24,0-36c0-1.5,0.4-1.9,1.9-1.8C324.8,196.1,328.1,195.7,331.3,196.1z"/>
		<path style="fill:#58BA51;" d="M395.5,285c-0.1,4.6-1.1,9-2.7,13.2c-1.4,3.6-3.5,6.8-6.1,9.8c-1.3,1.5-1.9,3.3-2.7,5.1
			c-1.7,3.8-3.2,7.6-5,11.4c-1.1,2.5-2.7,4.6-5.1,6c-3.1,1.9-5.5,1.6-8.1-0.8c-6-5.5-11.9-11-17.9-16.5c-0.9-0.8-1.5-1.7-1.9-2.9
			c-4.1-12.2-4.1-24.1,2.7-35.4c0.4-0.7,0.4-1.3,0.4-2.1c0-12.2,0-24.4,0-36.6c0-2.2-0.5-2.7-2.7-2.7c-3.3,0-6.6,0-10,0
			c-0.9,0-1.5,0-1.4-1.2c0-7.5,0-14.9,0-22.6c3.2,1.2,6.1,2.7,8.9,4.4c8.9,5.1,17.2,11,24.5,18.2c5.8,5.6,10.9,11.7,15.2,18.5
			c4.9,7.8,8.6,16,10.9,24.9c0.6,2.3,0.9,4.6,1,7C395.6,283.4,395.6,284.2,395.5,285z"/>
		<path style="fill:#58BA51;" d="M116.7,196.8c2.2-3.1,4.4-6.3,6.6-9.4c0.7-0.9,1.1-1.5,2.1,0c1.9,3,4.1,5.9,6.2,8.8
			c0.8,1.1,0.7,2.2,0.7,3.4c0,7.5,0,15.1,0,22.6c0,1.4,0.4,2.2,1.6,3c13.4,8.2,26.6,16.5,40,24.7c0.9,0.6,1.3,1.1,1.3,2.2
			c-0.1,3.5-0.1,7,0,10.5c0,0.9-0.3,1.6-0.9,2.2c-1.6,1.5-3.1,3.1-4.7,4.6c-1,0.9-1.3,1.8-1.3,3.1c0,16.5,0,33,0.1,49.5
			c0,1.4-0.2,2-1.9,2.1c-3.3,0.1-6.6,0.8-9.9,2c0-0.8,0-1.5,0-2.1c0-16.2,0-32.4,0-48.6c0-1.4-0.4-2.1-1.6-2.7
			c-11.9-6.3-24.4-10.5-37.7-12.8c-14.6-2.5-29.1-1.9-43.6,1.6c-0.2,0.1-0.5,0.1-0.8,0.1c0-3.4,0-6.8,0-10.2c0-0.7,0.4-0.9,0.9-1.2
			c7.5-4.9,15.3-9.5,22.9-14.1c6.3-3.8,12.5-7.6,18.8-11.5c0.3-0.2,0.6-0.6,0.9-0.9c0.2-1.9,0.1-3.8,0.1-5.7c0-6.5,0-12.9,0-19.4
			C116.6,198,116.4,197.4,116.7,196.8z"/>
		<path style="fill:#58BA51;" d="M142.8,334.1c-1.5-9.2-6.8-15.1-15.1-18.5c-7.2-2.9-14.6-3-22.1-0.5c-7.4,2.4-14.7,5-21.9,7.8
			c-0.4,0.2-0.9,0.4-1.5,0.2c2-2.6,3.9-5.2,5.2-8.1c4.8-10.4,3.8-20.7-0.5-31c-2.7-6.4-6.5-12.1-11-17.4c-0.3-0.4-0.7-0.8-1-1.2
			c-0.1-0.1-0.1-0.2-0.1-0.4c5.2-1.3,10.4-2.1,15.7-2.6c21.4-1.8,41.5,3.1,60.7,12.4c1.2,0.6,1.7,1.3,1.7,2.7
			c-0.1,16.1,0,32.3,0,48.4c0,1.2-0.3,1.9-1.4,2.5C148.4,329.8,145.6,331.8,142.8,334.1z"/>
		<path style="fill:#58BA51;" d="M178.7,259.6c0-3-0.1-6,0-9c0-1.4-0.4-2.3-1.6-3c-10-6.2-20-12.4-30.1-18.6
			c-0.5-0.3-1.1-0.5-1.6-0.7c-2.2-1-3.1-2.5-3.1-5.2c0.2-17.2,0.1-34.4,0.1-51.6c0-1.5,0.3-1.9,1.8-1.9c13.3,0.1,26.6,0.1,39.9,0
			c1.6,0,2.1,0.4,2.1,2.1c-0.1,26.5,0,53,0,79.5c0,1.2-0.4,2-1.2,2.8c-2,1.9-3.9,3.9-5.9,5.9C179,259.7,178.8,259.7,178.7,259.6z"/>
		<path style="fill:#58BA51;" d="M270.5,419.6c-5.5-0.3-10.4-2.3-15-5.1c-1.2-0.7-1.7-2-2.5-3.1c-5.1-6.7-10.2-13.4-15.3-20.2
			c-5-6.8-9.7-13.7-13.2-21.4c-0.8-1.7-1.3-3.4-1.2-5.3c0.1-2.9-0.3-5.7-1.2-8.4c-0.3-0.8-0.2-1.6,0.1-2.4
			c1.9-6.4,13.8-12.8,21.3-5.6c7.5,7.2,14.4,14.9,21.4,22.5c10.4,11.5,20.6,23.2,30.8,34.9c0.6,0.7,0.8,1.2,0.1,1.9
			c-4.1,4.6-8.7,8.4-14.5,10.7c-2.4,0.9-4.8,1.3-7.3,1.5C272.8,419.8,271.7,419.8,270.5,419.6z"/>
		<path style="fill:#58BA51;" d="M155.2,420.4c-8.4-0.9-17.1-5.1-21.9-8.9c19.6-16.1,39.5-31.9,58.4-48.9c4.9-4.4,5.7-9.7,5.6-15.6
			c0-1.7,0.5-2.1,1.9-2.1c12.2,0.1,19.3,5,20.5,17.7c0,0.5,0,0.9,0.1,1.4c0.3,4.1-0.7,7.3-3.8,10.5c-13.6,13.7-26.9,27.6-40.2,41.5
			c-2.9,3-6.5,3.5-10.2,4.2c-2.8,0.5-5.7,0.3-8.5,0.4C156.4,420.3,155.7,420.6,155.2,420.4z"/>
		<path style="fill:#58BA51;" d="M324.6,293.3c-8.7-4.6-17.5-6.7-26.6-2.4c-9,4.3-14.1,11.5-14.2,22.1c-5.1-4.7-10.6-8.1-17.3-8.7
			c-6.8-0.6-12.7,1.7-18.1,5.5c-0.6-0.4-0.3-1-0.3-1.5c0-8.5,0-17,0-25.4c0-1.4,0.3-1.8,1.8-1.8c9.4,0.1,18.7,0,28.1,0
			c2.4,0,2.9-0.5,2.9-2.9c0-1.5,0.1-3,0-4.4c-0.1-1.4,0.4-1.7,1.7-1.6c10.1,0.1,20.2,0,30.2,0c3.6,0,7.1,0,10.7,0
			c0.8,0,1.3,0.1,1.3,1.1C324.5,279.9,324.6,286.5,324.6,293.3z"/>
		<path style="fill:#58BA51;" d="M177.6,419.2c13-13.5,26-27,38.9-40.5c0.9-0.9,1.7-1.1,2.8-0.6c3.6,1.5,5.9,6,4.9,9.8
			c-1.5,5.9-4.4,11.2-7.6,16.4c-3.6,5.8-7.7,11.3-12.4,16.3c-2,2.2-5,3-8,3.2C189.6,424.4,183.5,422.1,177.6,419.2z"/>
		<path style="fill:#58BA51;" d="M248.4,416.4c-1.4,2.2-2.8,4.5-5,6c-3.1,2.1-6.7,2.4-10.2,2.1c-2.8-0.2-5.5-1.3-8.2-2.1
			c-2.2-0.7-3.1-2.5-3.9-4.3c-1.1-2.9-1.9-5.9-2.9-8.9c-0.3-0.8,0.3-1.3,0.6-1.7c4.3-6,7.3-12.5,9.2-19.6c0.2-0.7,0.4-1,1.2-0.8
			c1,0.2,1.5,0.8,2,1.5c5.6,8,11.6,15.6,17.6,23.2c0.1,0.6,0.1,1.2,0,1.7c0,0.4-0.1,0.9-0.1,1.3
			C248.4,415.3,248.8,415.9,248.4,416.4z"/>
		<path style="fill:#58BA51;" d="M315.9,233.4c-4.6,0-9.1-0.1-13.7,0c-1.2,0-1.6-0.3-1.6-1.6c0.1-9.1,0.1-18.2,0-27.3
			c0-1.4,0.5-1.7,1.7-1.6c1.4,0.1,2.8,0,4.2,0c0.7,0.3,1.5,0,2.2,0.2c2.2,0.1,4.4,0.6,6.6,0.5c0.7,0.2,0.7,0.7,0.7,1.2
			c0,9.3,0,18.5,0,27.8C316.2,232.9,316.2,233.2,315.9,233.4z"/>
		<path style="fill:#58BA51;" d="M281.9,218.5c0,4.5,0,9,0,13.5c0,1.1-0.3,1.4-1.4,1.4c-3.9-0.1-7.8-0.1-11.7,0
			c-1.1,0-1.4-0.4-1.4-1.4c0-8.4,0-16.8,0-25.2c0-0.9,0.1-1.3,1.2-1.5c4.1-0.7,8.2-1.1,12.3-1.6c1.2-0.1,1,0.7,1,1.3
			C281.9,209.5,281.9,214,281.9,218.5z"/>
		<path style="fill:#58BA51;" d="M388.7,216.3c-2,0-3.8-0.6-5.7-1.1c-1-0.2-0.9-1.1-0.7-1.7c0.8-4.3,6.7-9.6,11.1-10.3
			c2.9-0.5,5.6-0.2,8.3,0.8c1,0.3,1.5,0.8,1.1,1.9c-1.6,5.2-5.9,9.3-11.7,10.2C390.3,216.1,389.5,216.2,388.7,216.3z"/>
		<path style="fill:#58BA51;" d="M354.5,91.4c0.4,0.1,1.1,0.3,1.8,0.3c1.1,0,1.5,0.5,1.4,1.5c-0.5,5.4-2.8,10.1-8.6,12.7
			c-2.5,1.2-5.2,1.6-8,1.2c-1-0.1-1.1-0.5-1.1-1.3c-0.1-2.9,0.9-5.5,2.5-7.9C345.1,93.6,349.2,91.8,354.5,91.4z"/>
		<path style="fill:#58BA51;" d="M34.1,204.3c5,0.3,9.2,2.6,12.2,7.3c0.4,0.6,0.5,1-0.1,1.5c-6,4.5-14.5,4.4-20-1.3
			c-0.8-0.8-1.3-1.9-1.9-2.9c-0.2-0.3-0.5-0.6,0.1-1.1C26.9,205.7,30.3,204.3,34.1,204.3z"/>
		<path style="fill:#58BA51;" d="M220,37.2c-0.2,4.2-1.8,7.8-4.9,10.8c-0.8,0.8-1.3,0.8-2.2,0c-5.2-4.9-6.1-14.3-1.5-19.8
			c2.5-3,3.3-3.1,5.7,0.2C218.9,31,219.9,33.9,220,37.2z"/>
		<path style="fill:#58BA51;" d="M70.8,94.2c0-2.5,0.3-2.7,3.4-2.7c5.9,0.1,11.4,4.2,13.4,9.8c0.5,1.5,0.7,3.1,0.9,4.6
			c0.1,0.7-0.2,1.1-1.1,1.3c-3,0.5-6,0-8.7-1.3C74.2,103.8,70.9,98.9,70.8,94.2z"/>
		<path style="fill:#58BA51;" d="M138.7,223.8c-1.2-0.2-1.8-1.2-2.8-1.8c-0.2-6.2,0-12.5-0.1-18.7c0-0.2,0.1-0.3,0.2-0.5
			c0.5,0,1.1,0,1.6,0c0.7,0.2,1.4,0.2,1.4,1.3c-0.1,6.3,0,12.5,0,18.8C139,223.3,139,223.6,138.7,223.8z"/>
		<path style="fill:#60BE59;" d="M223.7,376.4c-1.3-0.7-2.1-1.2-3-1.7c0.2-0.6,0.9-1.4,1.1-1.2C222.8,374,222.9,375.1,223.7,376.4z"
			/>
	</g>
	<g>
		<path style="fill:#58BA51;" d="M455.9,209.1c0-30.9,19.4-57.4,56.2-57.4c13.9,0,25,4.2,36.6,14.2c4.3,4,4.8,11,0.5,15.5
			c-4.3,3.8-10.9,3.4-14.7-0.5c-6.6-6.9-13.3-8.8-22.4-8.8c-24.6,0-36.5,17.4-36.5,37c0,19.8,11.7,38.1,36.5,38.1
			c9.1,0,17.6-3.7,25-10.2c5-3.8,11.8-1.9,14.7,1.9c2.6,3.5,3.8,9.4-1.8,15c-11.2,10.4-24.6,12.5-37.9,12.5
			C473.3,266.4,455.9,240,455.9,209.1z"/>
		<path style="fill:#58BA51;" d="M628.8,266.9c-29.6,1.3-60.3-18.4-60.3-57.6c0-39.4,30.7-58.7,60.3-58.7
			c28,1.4,57.3,20.8,57.3,58.7S656.8,266.9,628.8,266.9z M627.1,171.4c-17.9,0-37.4,12.6-37.4,37.9c0,25.1,19.5,37.9,37.4,37.9
			c18.4,0,38.1-12.8,38.1-37.9C665.1,184,645.5,171.4,627.1,171.4z"/>
		<path style="fill:#58BA51;" d="M726.9,195.1v59.2c0,7-5.8,11-11.5,11c-5.1,0-9.6-4-9.6-11v-90.1c0-8.3,7-11,9.6-11
			c4.6,0,7.4,2.7,10.1,5.8l35.2,47.5l36.5-49.3c5.3-6.6,18.2-4,18.2,7v90.1c0,7-4.5,11-9.6,11c-5.8,0-10.2-4-10.2-11v-59.2
			L769,228.7c-5.8,7-13,7-18.2,0L726.9,195.1z"/>
		<path style="fill:#58BA51;" d="M858.9,195.1v59.2c0,7-5.8,11-11.5,11c-5.1,0-9.6-4-9.6-11v-90.1c0-8.3,7-11,9.6-11
			c4.6,0,7.4,2.7,10.1,5.8l35.2,47.5l36.5-49.3c5.3-6.6,18.2-4,18.2,7v90.1c0,7-4.5,11-9.6,11c-5.8,0-10.2-4-10.2-11v-59.2
			L901,228.7c-5.8,7-13,7-18.2,0L858.9,195.1z"/>
		<path style="fill:#58BA51;" d="M1045,165.1c0-14.2,21-15.4,21,0v57.9c0,59.8-96.5,59.8-96.5,0v-57.9c0-14.4,21-15,21,0v57.9
			c0,31.5,54.6,33.4,54.6,0V165.1z"/>
		<path style="fill:#58BA51;" d="M1088.3,165.8c0-5.8,1.3-11.4,9.6-11.4c5.8,0,7,1.4,11.4,5.6l53,66.2v-62.1c0-5.3,4.6-11,10.1-11
			c5.8,0,11.4,5.8,11.4,11v90.1c0,7-4.3,9.8-8.5,11c-5.6,0-8.3-1.3-13-5.6l-53-67.2v61.8c0,7-4.3,11-10.1,11c-5.8,0-10.9-4-10.9-11
			V165.8z"/>
		<path style="fill:#58BA51;" d="M1207.1,164.2c0-13.1,21.1-13.6,21.1,0v91.4c0,13.3-21.1,13.6-21.1,0V164.2z"/>
		<path style="fill:#58BA51;" d="M1281.9,174.6h-28c-13.9,0-13.9-20.5,0-20.5h75.7c14.2,0,14.2,20.5,0,20.5h-26.6v80.8
			c0,13.9-21.1,14.2-21.1,0V174.6z"/>
		<path style="fill:#58BA51;" d="M1352.5,169.6c-8.6-10.7,9.4-23,17.9-11.4l29.4,43.8l29.9-43.8c8.5-11.7,25.9,0,17.6,10.7
			l-37.4,53.3v33c1.4,13.9-21.1,13.9-21.1,0v-33L1352.5,169.6z"/>
		<path style="fill:#58BA51;" d="M1462.7,255.4v-90.9c0-5.8,4.2-9.9,11.4-9.9c5.6,0,9.8,4.2,9.8,9.9v34.9h52.2v-34.9
			c0-5.8,5.1-9.9,10.9-9.9c5.6,0,9.9,4.2,9.9,9.9v90.9c0,5.6-4.3,9.9-9.9,9.9c-5.8,0-10.9-4.3-10.9-9.9v-35h-52.2v35
			c0,5.6-4.2,9.9-9.8,9.9C1466.9,265.3,1462.7,261,1462.7,255.4z"/>
		<path style="fill:#58BA51;" d="M1654.4,165.1c0-14.2,21-15.4,21,0v57.9c0,59.8-96.5,59.8-96.5,0v-57.9c0-14.4,21-15,21,0v57.9
			c0,31.5,54.6,33.4,54.6,0V165.1z"/>
		<path style="fill:#58BA51;" d="M1707.2,265.3c-5.8,0-9.8-4.3-9.8-9.9v-90.9c0-5.8,4-9.9,9.8-9.9h45c21,0,32.3,14.2,32.3,30.6
			c0,7.2-2.1,14.2-8.8,20.2c12.6,5,18.2,14.7,18.2,26.6c0,18.4-12.5,33.4-36.5,33.4H1707.2z M1752.2,174.1h-33.8v23.8h33.8
			c6.9,0,11.2-4.3,11.2-12.8C1763.4,179.9,1759.1,174.1,1752.2,174.1z M1718.4,245.8h39c18.6,0,18.6-28.3,0-28.3
			c-12.2,0-26.4,0-39,0V245.8z"/>
	</g>
</g>
</svg>
