<?xml version="1.0" encoding="utf-8"?>
<!-- Generator: Adobe Illustrator 23.0.6, SVG Export Plug-In . SVG Version: 6.00 Build 0)  -->
<svg version="1.1" id="Layer_1" xmlns="http://www.w3.org/2000/svg" xmlns:xlink="http://www.w3.org/1999/xlink" x="0px" y="0px"
	 viewBox="0 0 166.4 447.8" style="enable-background:new 0 0 166.4 447.8;" xml:space="preserve">
<style type="text/css">
	.st0{fill:#666666;}
</style>
<g>
	<path class="st0" d="M51.1,440c-1.7,0-3.5,0-5.2,0c0-1.1-0.1-2.2-0.1-3.4c0-64.2,0-128.3,0-192.5c0-5.1,0-5.1,4.9-5.1
		c4.4,0,8.8-0.1,13.2,0c1.8,0,2.4-0.5,2.4-2.3c-0.1-4.1-0.1-8.3,0-12.4c0.1-1.9-1.1-3-2.1-4.2c-9.4-12.5-18.8-25-28.2-37.5
		c-0.5-0.7-0.9-1.5-1.4-2.2c2.8,0.5,5.5,1.1,8.3,1.6c6.2,8.5,12,17.3,18.8,25.3c7.3,8.5,11.9,17.4,9.8,28.8
		c-0.5,2.5,0.7,3.1,3.1,3.1c21.8-0.1,43.6-0.1,65.4,0c2.4,0,3.2-0.6,3.1-3.1c-0.1-11,0-22.1-0.1-33.1c0-2.4,0.3-4.7,1.1-7
		c4.1-12.6,8.2-25.2,12.3-37.8c1.3-3.9,1.8-7.7,0.6-11.8c-7.6-27.8-15.3-55.5-22.7-83.3c-0.8-3.1-1.9-2.7-4-1.6
		c-6.5,3.6-9.8,9.6-8.9,17.2c1.9,15.2,5,30.1,9,44.8c0.5,1.8,1.2,3.6,0.8,5.5c-1.3,1.8-2.9,1.9-4.7,0.8c-0.3-0.5-0.7-1.1-0.8-1.6
		c-3.4-14.3-7.1-28.6-8.9-43.2c-1.3-10.8-0.9-21.4,9.6-28.4c1.8-0.7,3.5-1.4,5.3-2.1c4.8-0.6,5.7-0.1,6.9,4.5
		c7.8,28.2,15.5,56.4,23.4,84.6c1.6,5.6,1.5,11-0.3,16.6c-4.1,12.4-8.1,25-12.1,37.4c-0.6,1.8-0.9,3.6-0.9,5.5
		c0,10.9,0.1,21.8-0.1,32.7c-0.1,3,0.9,3.6,3.6,3.4c2.7-0.2,5.5-0.1,8.3,0c5.2,0,5.3,0.1,5.3,5.2c0,36.3,0,72.7,0,109
		c0,27.6,0,55.1,0,82.7c0,1.4-0.1,2.7-0.1,4.1c-1.7,0-3.5,0-5.2,0c0-1.4-0.1-2.8-0.1-4.1c0-45.5,0-91,0.1-136.5
		c0-2.8-0.6-3.6-3.5-3.5c-7.6,0.2-15.3,0.1-22.9,0.1c-26.4,0-52.9,0.1-79.3-0.1c-2.8,0-3.7,0.7-3.5,3.5c0.3,3.5,0.1,7,0.1,10.5
		C51.1,353.3,51.1,396.6,51.1,440z M105.5,290.4c17.2,0,34.3-0.1,51.5,0.1c2.7,0,3.3-0.7,3.3-3.3c-0.1-13.3-0.1-26.6,0-39.9
		c0-2.4-0.6-3.1-3.1-3.1c-34.3,0.1-68.7,0.1-103,0c-2.5,0-3.1,0.7-3.1,3.1c0.1,13.3,0.1,26.6,0,39.9c0,2.6,0.6,3.3,3.3,3.3
		C71.4,290.4,88.5,290.4,105.5,290.4z"/>
	<path class="st0" d="M131.7,54.4c-1.8,0.7-3.5,1.4-5.3,2.1c0-5.5-0.2-11,0-16.5c0.1-3-0.6-4.1-3.9-4.1c-29,0.1-58.1,0.1-87.1,0
		c-3.3,0-3.9,1.1-3.9,4.1c0.1,11,0,22,0,33c-0.7,0-1.5-0.1-2.2-0.1c-4.4-0.4-2.3-3.9-3-6.1c0-7.1,0-14.3,0-21.4c0-1.9,0-3.7-0.1-5.6
		c0-7,0-14,0-21C26.4,8,34.2,0.1,45.1,0.1c22.7-0.1,45.3-0.1,68,0c11.3,0,18.5,7.4,18.6,18.7C131.7,30.6,131.7,42.5,131.7,54.4z
		 M79,30.1c12.5,0,25.1,0,37.6,0c10.9,0,11.1-0.3,9.7-11.2C125.1,10.4,121.3,6,114.4,6c-23.7-0.1-47.4-0.1-71,0
		c-5.6,0-9.7,3.6-11.1,8.9c-1,3.8-0.4,7.7-0.7,11.6c-0.3,3.1,0.9,3.8,3.8,3.7C49.9,30.1,64.4,30.1,79,30.1z"/>
	<path class="st0" d="M29.3,72.9c0.7,0,1.5,0.1,2.2,0.1c5.9,4.2,11.1,9.2,16.7,13.9c4.7,3.9,5.9,9.8,3.9,15.6
		c-1.7,4.8-5.2,7.2-9.9,8.6c10.2,9.2,8.8,18.9-3.5,25.8c3,2.9,6.9,5.1,8.5,9.2c0.2,1.9,0.4,3.7,0.6,5.6c-2.1,9.1-6.6,12.4-16.1,11.6
		c-1.7-0.9-3.4-1.8-5.1-2.7c-2.8-2.6-5.7-5.3-8.6-7.9c-5.7-5.1-6.7-10.8-3.2-17.5c1.4-2.8,4.5-3.3,6.6-5.1
		c-12.6-13.3-11.9-21.7,2.5-29c-2.2-1.7-4.5-3.2-6.6-5c-4.6-3.9-5.8-9.3-4.2-14.7c1.5-5.1,5.1-8.9,11.1-9.1
		C25.8,73.5,27.6,72.7,29.3,72.9z M27.2,77.4c-3.7-0.1-7.5,2.1-8.6,4.9c-1.5,3.8-0.6,7.3,2.6,10.2c1.7,1.5,3.4,3,5.1,4.4
		c3.3,2.6,6.2,5.9,10,7.9c3.7,1.9,7.1,0.9,10.1-3c2.2-2.9,2.2-6.6-0.3-8.9c-4.8-4.5-9.8-9-14.7-13.4C30.2,78.3,28.9,77.3,27.2,77.4z
		 M34.6,131.7c4.1-0.1,6.9-1.9,8.2-5.3c1.6-4.4,1.1-5.9-2.8-9.3c-2.8-2.5-5.5-5.1-8.4-7.5c-2.5-2.2-5.4-4-8.8-2
		c-3.4,2-5,5.1-4.7,9.1C18.3,121.4,29.7,131.8,34.6,131.7z M26.8,135.4c-4.4,0-6.9,1.9-8.4,5.3c-1.3,3.2,0.7,5.1,2.8,7
		c3.3,2.9,6.5,5.8,9.9,8.6c3.1,2.6,5.7,2.3,9.1-1c3-2.9,3.6-6.3,1-8.9c-3.4-3.5-7.1-6.6-10.8-9.7C29.4,135.7,27.8,135.3,26.8,135.4z
		"/>
	<path class="st0" d="M47.8,151.7c-0.2-1.9-0.4-3.7-0.6-5.6c1.5,0,3-0.1,4.5-0.1c23.3,0,46.6,0,69.8,0c4.8,0,4.7,0,4.8-4.9
		c0-3.7,0.1-7.5,0.2-11.2c1.8,1.1,3.4,0.9,4.7-0.8c0.8,12.7,0.6,25.5,0.1,38.2c-0.2,4.9-3.1,9.1-7.7,11.8c-3.8,2.2-7.9,3-12.2,3
		c-22.9,0-45.8,0-68.6,0c-2.8-0.5-5.5-1.1-8.3-1.6c-4.8-5.7-9.9-11.3-8-19.8c1.7,0.9,3.4,1.8,5.1,2.7c0.5,7.8,4.9,12.7,11.9,12.8
		c23.7,0.1,47.4,0.1,71.1,0c5.7,0,9.9-3.7,11.3-9.2c1-3.8,0.2-7.7,0.5-11.6c0.2-2.7-0.8-3.4-3.4-3.4c-15.3,0.1-30.6,0.1-45.9,0
		C67.3,151.9,57.5,151.8,47.8,151.7z"/>
	<path class="st0" d="M29.3,72.9c-1.7-0.2-3.6,0.6-5.2-0.6c-4.3-2.7-9.3-3.6-13.8-5.5c-2.8-1.2-5.4-2.5-7.3-5
		c-3.9-5.2-4-11.7-0.3-17.6c3.5-5.4,9.6-7.9,15.9-6.5c2.6,0.6,5.1,1.3,7.6,2c0,1.9,0,3.7,0.1,5.6c-1.8-0.5-3.6-1-5.4-1.4
		c-1.1-0.3-2.2-0.6-3.3-0.8c-5.4-1-9.7,1.4-11.3,6.2C4.5,55,6.6,60.1,12.1,62.3c4.6,1.8,9.5,3.1,14.2,4.6C27,69,25,72.6,29.3,72.9z"
		/>
	<path class="st0" d="M126.5,129.8c-0.1,3.7-0.2,7.5-0.2,11.2c0,4.9,0,4.9-4.8,4.9c-23.3,0-46.6,0-69.8,0c-1.5,0-3,0.1-4.5,0.1
		c-1.6-4.2-5.4-6.3-8.5-9.2c12.3-6.8,13.7-16.6,3.5-25.8c4.7-1.4,8.3-3.8,9.9-8.6c2-5.8,0.8-11.7-3.9-15.6
		c-5.6-4.6-10.7-9.7-16.7-13.9c0-11,0.1-22,0-33c0-3,0.6-4.1,3.9-4.1c29,0.1,58.1,0.1,87.1,0c3.3,0,4,1.1,3.9,4.1
		c-0.2,5.5,0,11,0,16.5c-10.5,7-11,17.6-9.6,28.4c1.8,14.6,5.5,28.9,8.9,43.2C125.9,128.8,126.3,129.3,126.5,129.8z"/>
	<path class="st0" d="M79.5,12c3.8,0.2,6,2.6,5.9,6.3c-0.1,4.3-2.5,6.7-6.6,6.5c-3.6-0.2-6.7-3.4-6.6-6.9
		C72.4,14.3,75.4,11.9,79.5,12z"/>
	<path class="st0" d="M79.3,161.6c5.9,0,11.7,0,17.6,0c2,0,4,0.1,3.9,2.8c-0.1,2.4-2.1,2.6-3.8,2.6c-12,0-24,0-36,0
		c-1.8,0-3.5-0.4-3.5-2.5c0-2.4,1.5-3,3.8-2.9C67.3,161.7,73.3,161.6,79.3,161.6z"/>
	<rect x="46" y="242.2" class="st0" width="120" height="207.6"/>
</g>
</svg>
