<?xml version="1.0" encoding="utf-8"?>
<!-- Generator: Adobe Illustrator 23.0.6, SVG Export Plug-In . SVG Version: 6.00 Build 0)  -->
<svg version="1.1" id="Layer_1" xmlns="http://www.w3.org/2000/svg" xmlns:xlink="http://www.w3.org/1999/xlink" x="0px" y="0px"
	 viewBox="0 0 573.4 299.8" style="enable-background:new 0 0 573.4 299.8;" xml:space="preserve">
<style type="text/css">
	.st0{fill:#666666;}
</style>
<g>
	<path class="st0" d="M476.7,300.1c-6.9-0.9-13.9-0.4-20.8-0.4c-30.5-0.1-61-0.1-91.5-0.1c-5.8,0-6.3-0.6-6.3-6.2
		c0-4-0.2-7.9,0.1-11.9c0.2-2.9-0.3-3.9-3.6-2.9c-7.8,2.5-15.9,4.2-23.7,6.8c-26.3,8.8-53.2,13.4-81,11.5
		c-10.6-0.7-17.8-7.2-18.1-17.9c-0.1-2.8-0.1-5.7,0-8.5c0.1-2.4-0.3-4-2.9-5.1c-4.1-1.6-6.5-5-6.6-9.6c-0.2-5-0.2-10.1-0.3-15.1
		c0-1.6,0.5-3.7-2.3-3.6c-1.6-1.3-3.3-2.6-4.9-4c-3.6-5.7-2.4-12.1-2.5-18.2c-0.1-6.4,0-6.4-6.4-6.4c-1.4,0-2.8,0.1-4.2,0.2
		c-1.9,0-3.8,0-5.7,0c-7.9-0.1-15.8,0-23.7-0.2c-12.6-0.3-20.4-8.3-19.2-19.5c0.8-8.1,7-14.8,15.4-15.5c9.1-0.7,18.3-0.5,27.4-0.8
		c2,0.3,3.9,0.4,5.9,0c3.8,0.5,7.7,0.5,11.5,0c2.2,0.5,4.3,0.5,6.5,0c18.6,0,37.2,0,56.6,0c-6.1-6.9-11.7-12.9-17-19.2
		c-6-7.1-5.7-15.5,0.7-21.7c5.3-5.1,10.6-5.1,19.3-0.4c25.8,13.8,50.4,29.5,75.1,45.2c1.1,0.7,2,2.1,3.9,1.4c0-2.3,0-4.7,0-7
		c0-7.5,0-7.5,7.7-7.5c35.1,0,70.2,0,105.3,0c1.9,0,3.7-0.3,5.6-0.4c0,2.2,0,4.4,0,6.6c-36.5-0.1-73.1-0.1-109.6-0.3
		c-4.1,0-3.1,2.5-3.1,4.7c0,38.1,0,76.2-0.2,114.4c0,3.7,1,4.6,4.6,4.6c36.1-0.1,72.1,0,108.2,0
		C476.7,295.6,476.7,297.8,476.7,300.1z M172.6,179.3c-4.5,0-8.6,1.1-11.3,4.8c-2.4,3.1-3.5,6.7-1.8,10.7c1.9,4.6,5.5,6.8,10.2,7.3
		c3,0.3,6,0.1,9,0.2c20.4,0,40.8,0,61.2,0c1.3,0,2.5,0,3.8,0c2.2,0.1,3.6,1.1,3.5,3.5c-0.1,2.4-1.9,2.7-3.7,2.8
		c-7,0.1-13.9,0.2-20.9,0c-3.4-0.1-4.9,0.6-4.5,4.3c0.3,3.6,0,7.3,0.1,10.9c0.1,5.9,1.9,7.6,7.7,7.7c5.7,0.1,11.4,0,17.1,0
		c2.3,0,4.2,0.3,4.2,3.2c0,2.9-2.3,2.6-4.1,2.7c-3.6,0.1-7.3,0.2-10.9,0c-3.2-0.2-4.6,0.5-4.3,4c0.3,3.8,0,7.6,0.1,11.4
		c0.1,5.9,1.7,7.5,7.7,7.6c4.7,0.1,9.5,0,14.2,0c1.1,0,2.2,0,3.3,0.1c2.1,0.3,3.7,1.3,3.6,3.6c-0.1,2.3-2,2.5-3.8,2.6
		c-4.1,0-8.2,0.2-12.3,0c-2.6-0.1-3.3,0.8-3.1,3.2c0.2,3-0.1,6,0.1,9c0.3,6.3,4.6,11.7,10.3,11.8c16.4,0.1,33,1.9,49.2-1.6
		c19.9-4.3,39.1-11.3,58.6-16.8c1.8-0.5,2.4-1.5,2.4-3.4c0-26.6,0-53.1,0-79.7c0-1.8-0.7-2.8-2.2-3.8
		c-26.5-17.5-53.7-33.9-81.2-49.8c-4-2.3-8.9-1.4-11.7,1.7c-2.5,2.9-2.3,7.4,0.8,11.3c6.6,8.3,13.4,16.4,20,24.7
		c1,1.2,3,2.3,1.9,4.4c-1.1,2.1-3.1,1.8-5,1.8c-18.2,0-36.4,0-54.5,0C208.3,179.4,190.4,179.4,172.6,179.3z"/>
	
		<rect x="398.2" y="123.9" transform="matrix(6.278352e-04 -1 1 6.278352e-04 234.2404 697.7982)" class="st0" width="136.1" height="215.7"/>
	<path class="st0" d="M211.4,176.5c1.9,0.4,3.7,0.4,5.6,0c0-50.6,0.1-101.3,0.1-151.9c0-11.8-6.3-20.2-17.4-23.5
		c-2.7-0.8-5.4-0.6-8-0.6C136,0.5,80.4,0.7,24.7,0.2C10.2,0.1,0.3,9.8,0.1,24.6C0,29.9,0,35.2,0,40.4c0,72.1-0.1,144.2-0.1,216.3
		c0,7.6,1.2,14.8,7,20.4c3.9,3.8,8.5,6.1,14.1,6.1c39.2,0,78.3,0.3,117.5-0.3c18.1-0.3,36.2-0.2,54.2-0.4c15-0.2,24.1-9.2,24.1-24.4
		c0-8.9,0-17.8,0.1-26.7c-1.4-1.1-2.8-2.3-4.2-3.4c-2.1,0.9-1.3,2.8-1.3,4.2c-0.1,9.7,0,19.4-0.1,29.2c-0.1,7.9-6.6,14.8-14.4,15.4
		c-4.4,0.4-8.9,0.6-13.3,0.6c-37.9,0.5-75.9-0.4-113.8,0.7c-15.4,0.5-30.8,0.1-46.2,0.1c-10.7,0-18.1-7.3-18.2-18
		c-0.1-8,0-15.9,0-23.9C5.5,165.7,5.5,95,5.6,24.2C5.6,13,12.7,5.4,23.3,5.4c56.7,0,113.4,0,170.2,0.1c10.1,0,18,7.8,18,17.9
		C211.5,74.4,211.5,125.5,211.4,176.5z"/>
	<path class="st0" d="M201.6,176.5c0-44.8,0.1-89.7,0.1-134.5c0-6.3-0.2-6.6-6.7-6.6c-57.7,0-115.3-0.1-173-0.1c-5.8,0-6,0.2-6,5.9
		c0,67.9-0.1,135.9-0.1,203.8c0,5.1,0.1,5.1,5.3,5.1c58.1,0,116.1,0.1,174.2,0.1c5.3,0,6.1-0.8,6.1-6.1c0-12.3,0-24.6,0-36.9
		c-1.6,0-3.3,0-4.9,0c0,11.5-0.1,23,0,34.4c0,2.8-0.9,3.7-3.7,3.7c-56.2-0.1-112.4-0.2-168.5-0.1c-3.5,0-3.5-1.6-3.5-4.2
		C21,206.2,21,171.4,21,136.5c0-30.1,0-60.2,0.1-90.3c0-1.8,0.1-3.5,0.2-5.3c0.2-0.2,0.3-0.3,0.5-0.5c1.5-0.1,3-0.2,4.4-0.2
		c55.2,0,110.4,0.1,165.5,0c4.2,0,5.1,1.2,5.1,5.2c-0.2,43.7-0.2,87.4-0.2,131.1C198.3,176.9,199.9,176.9,201.6,176.5z"/>
	<path class="st0" d="M21.7,40.4c-0.2,0.2-0.4,0.3-0.5,0.5C21.4,40.8,21.6,40.7,21.7,40.4z"/>
	<path class="st0" d="M104.4,21.8c0.1,2.6,1.4,4,4,3.9c2.3-0.1,4-1.6,3.9-3.8c0-2.2-1.4-4.3-4-4.2C106,17.8,104.2,19,104.4,21.8z"/>
	<g>
		
			<rect x="89.5" y="56.4" transform="matrix(6.278352e-04 -1 1 6.278352e-04 -10.8182 213.8945)" class="st0" width="24.3" height="111.8"/>
		
			<rect x="74.9" y="40.2" transform="matrix(6.278352e-04 -1 1 6.278352e-04 5.4273 166.9261)" class="st0" width="22.7" height="81"/>
		
			<rect x="57.8" y="123.7" transform="matrix(6.278352e-04 -1 1 6.278352e-04 -78.0541 214.6412)" class="st0" width="21.1" height="45.4"/>
	</g>
</g>
</svg>
