<?xml version="1.0" encoding="utf-8"?>
<!-- Generator: Adobe Illustrator 23.0.6, SVG Export Plug-In . SVG Version: 6.00 Build 0)  -->
<svg version="1.1" id="Layer_1" xmlns="http://www.w3.org/2000/svg" xmlns:xlink="http://www.w3.org/1999/xlink" x="0px" y="0px"
	 viewBox="0 0 573.4 443.8" style="enable-background:new 0 0 573.4 443.8;" xml:space="preserve">
<style type="text/css">
	.st0{fill:#666666;}
</style>
<g>
	<path class="st0" d="M286.7,0.8c90.1,0,180.1,0,270.2-0.1c9.2,0,16,7.7,16,16.1c-0.1,116.3-0.1,232.6-0.1,349
		c0,9.3-6.5,15.9-15.8,15.9c-180.2,0-360.5,0-540.7,0c-9.2,0-15.8-6.7-15.8-15.9c0-116.3,0.1-232.6-0.1-349
		c0-9.1,7.7-16.1,16.3-16.1C106.7,0.9,196.7,0.8,286.7,0.8z M550.5,358.9c0-1.4,0-2.4,0-3.4c0-109.6,0-219.1,0-328.7
		c0-3.4,0-3.4-3.4-3.4c-173.6,0-347.1,0-520.7,0c-3.3,0-3.3,0-3.3,3.4c0,109.6,0,219.1,0,328.7c0,3.4,0,3.4,3.4,3.4
		c173.6,0,347.1,0,520.7,0C548.2,358.9,549.2,358.9,550.5,358.9z M290.2,11.5c-1.6-1.1-2.6-2.2-3.5-2.1c-0.9,0.1-2.1,1.3-2.3,2.2
		c-0.3,1.5,0.9,2.6,2.4,2.4C287.8,13.7,288.6,12.7,290.2,11.5z"/>
	<path class="st0" d="M350.5,383.6c0.8,8.3,1.3,16.4,2.3,24.4c1,8.2,2.5,16.4,3.9,24.6c0.6,3.5,2.3,5.8,6.2,6.3
		c6.5,0.9,12.9,2.2,19.4,3.4c0.3,0.1,0.6,0.2,0.9,0.9c-2.7,0.2-5.5,0.5-8.2,0.5c-49.7,0.2-99.3,0.4-149,0.5c-11.5,0-23-0.5-34.5-0.8
		c-0.8,0-1.6-0.2-2.4-0.2c0-0.2-0.1-0.4-0.1-0.6c1.1-0.2,2.2-0.5,3.4-0.7c6.1-1.1,12.1-2.2,18.2-3.2c2.8-0.4,4.1-2.1,4.5-4.6
		c1.4-8.3,2.9-16.5,4-24.9c1-7.7,1.5-15.4,2.2-23.1c0.2-1.9,0.8-2.6,2.9-2.6c41.3,0.1,82.7,0,124,0.1
		C348.9,383.4,349.6,383.5,350.5,383.6z"/>
	<path class="st0" d="M381.6,445.3c-63.7,1.4-127.3,1.4-191,0C254.3,445.3,318,445.3,381.6,445.3z"/>
	<path class="st0" d="M290.2,11.5c-1.6,1.2-2.4,2.2-3.4,2.4c-1.5,0.3-2.7-0.9-2.4-2.4c0.2-0.9,1.4-2.1,2.3-2.2
		C287.6,9.3,288.5,10.4,290.2,11.5z"/>
</g>
<rect x="35.2" y="33.8" class="st0" width="501" height="315"/>
</svg>
