<?xml version="1.0" encoding="utf-8"?>
<!-- Generator: Adobe Illustrator 23.0.4, SVG Export Plug-In . SVG Version: 6.00 Build 0)  -->
<svg version="1.1" xmlns="http://www.w3.org/2000/svg" xmlns:xlink="http://www.w3.org/1999/xlink" x="0px" y="0px"
	 viewBox="0 0 1682 1206" style="enable-background:new 0 0 1682 1206;" xml:space="preserve">
<style type="text/css">
	.st0{fill:#D7C0B9;}
	.st1{fill:#F2D7CC;}
	.st2{fill:#9A9186;}
	.st3{fill:#CDC8B5;}
	.st4{fill:#D7D6CB;}
	.st5{fill:#F2F2F2;}
	.st6{fill:#959A8F;}
	.st7{fill:#C6CDC7;}
	.st8{fill:#C2D7D5;}
	.st9{fill:#F2F0E7;}
	.st10{fill:#888D9A;}
	.st11{fill:#C0BDCD;}
	.st12{fill:#FFC700;}
	.st13{fill:none;stroke:#FFB800;stroke-width:5;stroke-miterlimit:10;}
	.st14{fill:#FFFFFF;}
	.st15{fill:#0E1212;}
	.st16{fill:#0B1414;}
	.st17{fill:#0F1818;}
	.st18{fill:#0E0E0E;}
	.st19{fill:#151F1F;}
	.st20{fill:#121C1C;}
	.st21{fill:#FDFDFD;}
	.st22{fill:#0B0B0B;}
	.st23{fill:#0D0D0D;}
	.st24{fill:#0D0B0A;}
	.st25{fill:#161616;}
	.st26{fill:#F0F0F0;}
	.st27{fill:#E8E8E8;}
	.st28{fill:#FBFBFB;}
	.st29{fill:#FA9C85;}
	.st30{fill:#FBB03B;}
	.st31{fill:#F9913D;}
	.st32{fill:#F9C04E;}
	.st33{fill:#FFB800;}
	.st34{fill:#D6A300;}
</style>
<g id="Layer_3">
	<g>
		<path class="st0" d="M551.9,61.6l251.1,421l-556.7,332L3.2,407.1c-4.4-7.4-2-17,5.4-21.4L551.9,61.6z"/>
		<path class="st1" d="M551.9,61.6l19.2,32.2l-556.7,332L3.2,407.1c-4.4-7.4-2-17,5.4-21.4L551.9,61.6z"/>
		<circle class="st2" cx="23.5" cy="399.4" r="11.5"/>
		<circle class="st2" cx="50.6" cy="383.2" r="11.5"/>
		<circle class="st2" cx="77.8" cy="367" r="11.5"/>
		<circle class="st3" cx="23.5" cy="399.4" r="10.2"/>
		<circle class="st3" cx="50.6" cy="383.2" r="10.2"/>
		<circle class="st3" cx="77.8" cy="367" r="10.2"/>
	</g>
	<g>
		<path class="st4" d="M1574,72v745H697V95.7c0-13.1,9.5-23.7,21.1-23.7H1574z"/>
		<path class="st5" d="M1574,72v57H697V95.7c0-13.1,9.5-23.7,21.1-23.7H1574z"/>
		<ellipse class="st6" cx="725.9" cy="101.5" rx="15.6" ry="17.5"/>
		<ellipse class="st6" cx="768.7" cy="101.5" rx="15.6" ry="17.5"/>
		<ellipse class="st6" cx="811.4" cy="101.5" rx="15.6" ry="17.5"/>
		<ellipse class="st7" cx="725.9" cy="101.5" rx="13.8" ry="15.5"/>
		<ellipse class="st7" cx="768.7" cy="101.5" rx="13.8" ry="15.5"/>
		<ellipse class="st7" cx="811.4" cy="101.5" rx="13.8" ry="15.5"/>
	</g>
	<g>
		<path class="st8" d="M842,344.8V813H223V359.7c0-8.2,6.7-14.9,14.9-14.9H842z"/>
		<path class="st9" d="M842,344.8v35.8H223v-20.9c0-8.2,6.7-14.9,14.9-14.9H842z"/>
		<circle class="st10" cx="243.4" cy="363.4" r="11"/>
		<circle class="st10" cx="273.6" cy="363.4" r="11"/>
		<circle class="st10" cx="303.8" cy="363.4" r="11"/>
		<circle class="st11" cx="243.4" cy="363.4" r="9.7"/>
		<circle class="st11" cx="273.6" cy="363.4" r="9.7"/>
		<circle class="st11" cx="303.8" cy="363.4" r="9.7"/>
	</g>
	<g>
		<g>
			<path class="st12" d="M305.3,846.8c0,5.5-4.5,9.9-9.9,9.9H171.8c-5.5,0-9.9-4.5-9.9-9.9l2.3-9.1l18.1-72.9l9.3-37.3l8.4-34
				l7.6-30.7l20.6-82.9c0-3.3,2.6-3.5,5.8-3.2c2.1,0.2,4.5,0.7,6.6,0.7l20.5,85.4l7.4,30.7l8.2,34l9,37.3l17.5,72.9L305.3,846.8z"/>
			<path class="st12" d="M326,847.3v7.3c0,5.3-4.3,9.6-9.6,9.6H151.6c-5.3,0-9.6-4.3-9.6-9.6v-7.3c0-5.3,4.3-9.6,9.6-9.6h164.8
				C321.7,837.6,326,842,326,847.3z"/>
			<line class="st13" x1="164.4" y1="837.6" x2="260.5" y2="837.6"/>
			<polygon class="st14" points="268.5,693.4 200,693.4 207.6,662.8 261.1,662.8 			"/>
			<polygon class="st14" points="285.6,764.7 182.3,764.7 191.5,727.4 276.6,727.4 			"/>
		</g>
		<path class="st14" d="M142,848.1v7.3c0,5.3,4.3,9.6,9.6,9.6H234V577.5c-2.1,0.2-4.5,0.7-6.6,0.7l-20.5,85.4l-7.4,30.7l-8.2,34
			l-9,37.3l-17.5,72.9h-13.3C146.3,838.5,142,842.8,142,848.1z"/>
	</g>
	<g>
		<g>
			<path class="st12" d="M1260.3,846.8c0,5.5-4.5,9.9-9.9,9.9h-123.5c-5.5,0-9.9-4.5-9.9-9.9l2.3-9.1l18.1-72.9l9.3-37.3l8.4-34
				l7.6-30.7l20.6-82.9c0-3.3,2.6-3.5,5.8-3.2c2.1,0.2,4.5,0.7,6.6,0.7l20.5,85.4l7.4,30.7l8.2,34l9,37.3l17.5,72.9L1260.3,846.8z"
				/>
			<path class="st12" d="M1281,847.3v7.3c0,5.3-4.3,9.6-9.6,9.6h-164.8c-5.3,0-9.6-4.3-9.6-9.6v-7.3c0-5.3,4.3-9.6,9.6-9.6h164.8
				C1276.7,837.6,1281,842,1281,847.3z"/>
			<line class="st13" x1="1119.4" y1="837.6" x2="1215.5" y2="837.6"/>
			<polygon class="st14" points="1223.5,693.4 1155,693.4 1162.6,662.8 1216.1,662.8 			"/>
			<polygon class="st14" points="1240.6,764.7 1137.3,764.7 1146.5,727.4 1231.6,727.4 			"/>
		</g>
		<path class="st14" d="M1097,848.1v7.3c0,5.3,4.3,9.6,9.6,9.6h82.4V577.5c-2.1,0.2-4.5,0.7-6.6,0.7l-20.5,85.4l-7.4,30.7l-8.2,34
			l-9,37.3l-17.5,72.9h-13.3C1101.3,838.5,1097,842.8,1097,848.1z"/>
	</g>
</g>
<g id="Layer_1">
	<g>
		<path class="st14" d="M660.5,438c0,0-191-38-230.4,91c0,0-42.4,128,95,112c0,0-51.5,232.4,20.7,286.7c0,0,71.3,122.3,272.8,31.3
			s-32.9-215-32.9-215L660.5,438z"/>
		<g id="_x34_sM9TW.tif">
			<g>
				<path class="st15" d="M946.8,244c5.9,3.1,6.9,6,4.4,12.7c-4.2,11.6-18.6,21-32.9,21.4c-2.2,0.1-4.4,0-7,0c1.2,3.8,4,5.6,5.7,8.2
					c15.8,24.9,26.5,52,31.7,80.7c8.1,45,15.3,90.2,24.8,134.9c5.7,27,10,54.3,15.5,81.3c4.4,21.6,5.8,43.4,7,65.4
					c1.8,32,4,63.9,3.2,95.9c-0.9,39.7-4.1,78.9-18.3,116.5c-9.1,24.2-19.8,47.9-28,72.5c-8,24-13.8,48.3-13.2,73.8
					c0.3,13,1.2,14.4,13.6,18.6c15.9,5.3,32,9.5,48.9,8.2c10.2-0.8,20.3-2.7,30.5-2.1c8.4,0.5,16.4,2.2,23.6,6.8
					c1.4,0.9,2.8,2,3.9,3.2c2.8,3.3,4.7,7,3.4,11.5c-1.4,4.5-5.7,1.1-8.2,2.8c1.7,2.6,3.5,5.2,4.2,8.3c0.7,2.8,0,5.5-1.9,7.3
					c-2,1.9-4.1,0.1-6.2-0.9c-6.3-3.2-13-4.9-20-6c-3.4-0.5-5,0.2-3.9,4.1c1.4,4.9,0.5,9.3-3.7,12.7c-2.9,2.4-5.7,2.2-7.6-0.9
					c-2.1-3.6-5.5-4.9-8.9-6.5c-12.7-5.9-25.6-11.3-38.7-16.3c-7.4-2.8-14.7-5.9-22.8-6.4c-9-0.6-17-4.9-25.2-8.1
					c-1.2-0.5-2.4-1-3.7-1.5c-8.1-2.9-8.6-3-5.7-11.1c5.7-15.8,5.2-31.3,0-47.2c-4.1-12.2-6.9-24.7-10.2-37.2
					c-0.9-3.4-1.8-4.4-5.6-2.9c-17.8,6.9-36,12.4-55.2,14.3c-23.6,2.4-46.9-0.2-70.2-4c-12.3-2-24.5-4.6-36.7-7.2
					c-3.4-0.7-4.1,0.5-4.8,3.4c-5.3,24.4-11.1,48.7-9.8,74c0.4,7.9-2.3,10.9-10.3,13.4c-16.7,5.1-33.7,8.4-50.7,12.4
					c-6.7,1.6-13.1,3.7-18.7,7.7c-3.1,2.2-5.8,4.7-7,8.6c-1.2,3.9-3.7,4.2-6.6,1.1c-2.7-2.9-2.8-6.7-3.8-10.8
					c-2.6,2.7-3.7,5.7-4.6,8.7c-0.8,2.5-1.5,5.1-2.7,7.4c-1.5,2.7-1.3,7.5-6.1,6.9c-4.8-0.5-5.3-4.9-6.1-8.4c-1.2-5-0.4-10.2,0-15.8
					c-4,1.6-5.6,5.1-8.1,7.7c-1.9,1.9-3.5,5.3-6.7,4c-2.8-1.1-3.6-4.2-3.8-7.2c-1.1-18.4,3.7-30.9,24.1-36
					c6.8-1.7,13.6-3.3,20.5-4.6c13.6-2.5,27.6-1.5,41.2-4.3c1.5-0.3,3-0.6,4.4-0.9c12-2.7,11.9-2.7,9.9-14.5
					c-4-24.1-10.1-47.8-16.2-71.5c-2.7-10.3-8-18.9-15.4-26c-14.5-13.8-23.8-30.8-30.6-49.2c-7.5-20.4-15.9-40.5-19.8-62.1
					c-4.1-23.3-4.4-46.8-2.8-70.3c5.3-75.1,21.4-148.3,41.5-220.6c4.1-14.6,9.9-28.6,15.9-42.5c3-7,2-13.5-0.2-20.2
					c-0.5-1.4-1.2-2.8-1.7-4.2c-0.7-2.2-3.1-5.7-1.6-6.4c3.1-1.4,4.5,2.5,6.2,4.5c1.5,1.9,2.4,4.3,3.8,7c3.5-6.1,5.4-12.6,7.6-18.8
					c7.5-21.2,14.4-42.6,22.1-63.7c9-24.4,21.9-46.9,35-69.3c0.8-1.4,2.7-2.8,1.8-4.5c-1.2-2.1-3.5-0.5-5.1-0.2
					c-16.1,2.6-31.3,1.4-44.5-9.4c-3.8-3.1-6.4-7-7.9-11.6c-2.3-6.9,1.2-11.4,8.4-10.7c27.7,2.7,55.4,5.5,83,8.4
					c7.1,0.8,13.9-0.2,20.9-0.8c33.3-3,66.5-2.9,99.7,1.6c1.5,0.2,2.8,0.7,4.4,0c17.2-6.6,35.2-9.9,53-14.3c0.4-0.1,0.7-0.7,1.1-1
					C943.7,244,945.2,244,946.8,244z M946.9,250.3c-10.6,1.4-20.4,4-30.3,6.4c-12.8,3.2-25,8.1-38.8,7.2c-28.6-2-57.2-3.1-85.8-1.7
					c-13.3,0.7-26.4,3-40.1,0.5c-23.5-4.3-47.5-4.8-71.3-6.3c-2.9-0.2-5.7,0.5-3.1,3.8c4.9,6.2,10.2,13.3,18.2,14.7
					c13.3,2.3,26.9,3.3,40-2c2.5-1,6.2-1.7,8,0.4c1.6,1.8-0.6,4.5-1.8,6.7c-2.4,4.4-6.2,7.5-9.2,11.3c-9.9,12.5-17.7,26.3-24,41.1
					c-13.5,31.9-22.7,65.4-35.2,97.6c-19.7,50.7-38.1,101.6-47.5,155.4c-4.4,25.4-11.6,50.2-14.5,75.8c-1.7,15.4-2.6,31-4.2,46.4
					c-1.5,14.5-2.8,29-2.9,43.6c-0.1,26,5.3,51,13.1,75.8c7.4,23.5,16.5,45.6,34.1,63.8c12.2,12.6,19.9,28.4,24,45.7
					c6,25.4,10.7,51.1,14.7,76.9c0.6,4-1.6,4.3-4.3,4.8c-17.2,3-34.4,5.6-51.7,7.2c-10.7,1-21.5,1.3-31.5,6.3
					c-10.8,5.4-15.6,14.4-13.7,26.7c1.8-0.6,2.4-2.3,3.4-3.5c3-3.7,6.6-6.7,10.6-9.3c1.9-1.3,4-1.8,5.9-0.9c2.3,1.2,0.7,3.5,0.4,5.1
					c-0.6,3.9-1.7,7.8-2.6,11.6c-0.8,3.4-0.2,6.6,1.7,10.2c2.8-6.4,5.2-12.4,9.3-17.3c1.8-2.2,3.4-6.1,6.6-5.3
					c3.4,0.8,1.9,4.8,2.3,7.5c0.2,1.3,0,3,1.3,3.6c1.3,0.6,2.3-1,3.3-1.7c7.1-5.8,15.3-9.8,23.9-12.7c17-5.7,34.5-9.4,52.1-12.8
					c3.7-0.7,6.2-1.9,6.2-6.4c-0.1-26.7,3.9-52.8,11-78.5c0.7-2.6-0.2-3.8-2.5-4.7c-3.7-1.5-7.3-3.3-11.1-5c1.3-2.1,2.5-1.6,3.9-1.2
					c7.1,2,14.1,4.3,21.3,5.9c21.9,4.9,44.1,7.1,66.3,9.4c14.2,1.4,28.4,2.2,42.6,0.3c22.7-3,44-10.6,64.7-20.2
					c1.6-0.7,3-2.3,5.2-1.5c-1,3.8-4.1,5.5-7.1,7c-3,1.4-2.9,3.1-2.1,5.8c2.6,8.7,5.2,17.4,7.4,26.2c5.3,21,11,42,2,63.5
					c-0.6,1.4-0.6,2.5,1.2,3.1c11.3,3.6,22,9.4,33.9,11.3c22.2,3.5,41.9,13.6,62.1,22.7c2,0.9,3.8,2.5,5.7,3.7
					c1.2,0.7,1.8,3.1,3.5,1.9c1.6-1.1,1.8-3.3,1.2-5.2c-0.4-1.3-1-2.5-1.5-3.7c-2.1-5-1.3-6.5,4.1-7.2c1.9-0.2,3.8-0.1,5.7,0.1
					c7.9,0.4,15.4,2.8,23.9,6.1c-3.3-7.7-8.9-10.8-14.9-13.7c-1.2-0.6-3.6-0.3-3.2-2.3c0.4-2,2.5-0.9,3.9-1
					c5.7-0.5,11.5,0.9,17.4-0.4c-2.9-4.6-6.7-7.2-11.3-8.9c-8.6-3.2-17.4-3.2-26.3-1.7c-26.4,4.6-51.6,0.6-76-9.9
					c-6.5-2.8-8.8-7.3-9.2-14.1c-1.9-28.7,4.5-56,13-83.1c8.1-25.8,20.4-50.1,28.8-75.8c11.7-35.4,17.1-71.7,15.6-109
					c-0.6-14.2-1.7-28.3-1.3-42.6c0.7-24.8,0-49.6-2-74.4c-2.4-30.3-9.5-59.8-16-89.4c-10.3-47-18.4-94.4-25.7-141.9
					c-4.6-29.8-12.1-58.9-23.9-86.8c-4.8-11.4-11.1-21.9-18.5-31.8c-1-1.3-3.8-3.9,0.1-4.3c10.7-1.2,20.1-6.2,30-9.7
					C941.7,263,945.4,257.7,946.9,250.3z"/>
				<path class="st16" d="M548.4,972.7c2.7-14.8,9.4-26.3,21.4-34.6C568.9,951.6,559.5,967.3,548.4,972.7z"/>
				<path class="st17" d="M528.3,693.1c-5.4-8.8-14.7-10.7-22.7-14.7c-1.2-0.6-3.4-0.7-3.1-2.7c0.3-1.9,2.5-1.3,3.8-1.6
					c10.9-2.2,17.8,4.2,22.4,12.2C529.7,688.1,530.2,690.3,528.3,693.1z"/>
				<path class="st18" d="M527.1,640.5c-2.9-1.2-5.8-2.4-8.8-3.7c3.3-4.2,7.7-3.1,12.4-3.6c-3.1-5-5.9-9.5-8.8-14.2
					c8.5,0.8,16.7,12.4,13.8,19.4c-1.3,3-4.6,1.7-6.9,2.3C528.1,640.7,527.6,640.6,527.1,640.5z"/>
				<path class="st17" d="M528.7,452.2c-12.1-1.2-21.8-7-31.7-12.9C507.2,435.7,520.5,441.2,528.7,452.2z"/>
				<path class="st17" d="M522.3,806.5c-13,1-23.3,8-35.6,10.7C495.7,804.1,507.1,800.4,522.3,806.5z"/>
				<path class="st16" d="M560.8,920.6c-4.7,10.2-12.2,17.8-19.8,25.4c-1.2,1.2-2.3,1.2-3.5,0.4c-1.5-1-0.4-2,0.2-2.8
					C544.3,935,548.8,924.4,560.8,920.6z"/>
				<path class="st19" d="M589.1,952.2c0.5,5.6-1,9.3-2.5,12.5c-3.6,7.5-6.7,15.1-7.9,23.3c-0.2,1.6-1.2,2.9-2.5,3.6
					c-1,0.6-2.2,1.9-3.5,0.7c-0.9-0.9-0.1-2.1,0.2-3.2c2.9-8.5,5.8-17,8.8-25.5C583,959.7,586.2,956.9,589.1,952.2z"/>
				<path class="st20" d="M621.9,968.8c1.6,4.5-0.5,8.4-0.8,12.5c-0.6,6.8-1.4,13.5-2.3,20.2c-0.2,1.8-1,4.2-3.3,3.8
					c-2.3-0.4-1.1-2.8-1.1-4.3C614.5,989.8,615,978.6,621.9,968.8z"/>
				<path class="st17" d="M495.7,847.1c7-10.3,15-13.7,28.9-12.7C515.1,838.9,506.7,846.1,495.7,847.1z"/>
				<path class="st15" d="M508.4,763.4c-2.6-0.2-5.2-0.3-7.9-0.5c7.4-9.5,21.2-9.2,25.8,0.5c-5.6,0-11.2,0-16.8,0
					C509.1,763.4,508.7,763.4,508.4,763.4z"/>
				<path class="st20" d="M524.9,927.7c7.3-7.6,10.6-18.8,22.3-23.6C541.9,914.9,536.6,924.2,524.9,927.7z"/>
				<path class="st20" d="M602.6,960.2c1.4,6.1-1.4,11.3-2.3,16.8c-0.7,4.1-2.3,8-3.3,12c-0.4,1.5-1,2.4-2.7,1.9
					c-1.4-0.4-1.5-1.4-1.4-2.7C592.9,980.1,597.2,967.5,602.6,960.2z"/>
				<path class="st20" d="M508.8,902.3c11.3-4.7,18.4-14,30.5-15.4C535,894.2,516.2,904.3,508.8,902.3z"/>
				<path class="st20" d="M441,603.1c1.7,12.2,5.5,23,5.4,34.5C442,626.8,434.2,616.7,441,603.1z"/>
				<path class="st16" d="M577.8,417.9c8.1,3.2,11.6,11.9,21,13.6c-1.7-2.8-3-2.2-3.9-1.3c-1.1,1.1,0.1,2,0.8,2.8
					c1.4,1.5,3,2.9,4.3,4.5c1.1,1.3,1,2.8-0.2,4.1c-1.7,1.8-2.7,0.2-3.7-0.8C589.4,434.1,582.8,427.2,577.8,417.9z"/>
				<path class="st19" d="M666.2,976.8c1.1,11.1,0.2,21.3-3.9,31.3C657.9,997.1,660.3,987.1,666.2,976.8z"/>
				<path class="st20" d="M509.5,780.2c4.2,0.1,8.3,0.2,12.5,0.2c2.3,0,4.2,0.2,5.1,3.3c-10.7,0.8-21.1,3.8-33,3.5
					c5.4-2.6,9.8-4.8,14.2-6.9C508.7,780.3,509.1,780.2,509.5,780.2z"/>
				<path class="st20" d="M441.5,490.4c8.3-3.1,16.2-6.3,24.3-9.1c2.1-0.7,4.5-0.5,8.1-0.8C463.2,486.8,454.3,494.3,441.5,490.4z"/>
				<path class="st17" d="M619.8,436.7c-6.7-4-6.7-4-16.7-21.5C608.9,415.9,620.3,430.5,619.8,436.7z"/>
				<path class="st20" d="M452.3,509.8c-10.6,3.6-20.1,8.7-31.1,8.3C430.9,513.9,439.8,506.3,452.3,509.8z"/>
				<path class="st16" d="M526.4,701.8c-12.7,0.2-19.9-3.6-22.9-11.9C511.6,692.9,519.6,695.3,526.4,701.8z"/>
				<path class="st15" d="M527.1,640.5c0.5,0.1,1,0.2,1.6,0.3c-2.3,2.3,0.8,2.6,1.5,3.3c3.5,3.1,6.3,6.6,6.8,11.4
					c0.3,2.3,0.3,4.6-2.1,6.4c-2.6-5-5.1-10.1-7.7-15C526,644.7,526,642.6,527.1,640.5z"/>
				<path class="st17" d="M523.3,748.8c-9-5.9-18-6.9-28.8-5.8C504.8,736.9,520.3,737.2,523.3,748.8z"/>
				<path class="st19" d="M497.5,716.5c7.4-4.3,15.7-0.2,21.7,11C511.4,723.6,504.6,720.1,497.5,716.5z"/>
				<path class="st19" d="M768.3,975.3c4.5,4.5,7.8,8.8,8.3,14.7c0.1,1.4,1.3,3.4-0.3,4c-1.7,0.6-3.6-0.4-4.7-2.2
					C768.5,987,767.9,981.6,768.3,975.3z"/>
				<path class="st19" d="M428.9,560.8c-2.2,4.7-4.1,8.9-6,13.2c-0.2,0.4,0.2,1,0.3,1.5c0.2-0.2,0.5-0.3,0.7-0.5
					c0.1-0.1,0-0.4-0.1-0.5c-0.7-0.6-1.2-0.6-1.8,0.2c-1.2,1.9-2.5,3.8-3.8,5.6c-0.6,0.8-1.7,1.1-2.5,0.6c-1-0.7-0.3-1.5,0.1-2.4
					c1.7-3.5,3.4-7.1,4.6-10.8C421.6,563.7,423.9,561.3,428.9,560.8z"/>
				<path class="st17" d="M499,659.6c-6-5.4-13.8-8.8-17.1-16.8C490.8,644.1,498.3,651.4,499,659.6z"/>
				<path class="st17" d="M510.8,868.2c7.8-5.6,13.8-11.7,23.8-10.1C528.2,864.4,521,867.8,510.8,868.2z"/>
				<path class="st20" d="M471.4,461.8c8.5,0.3,17.7-1.5,24.2,7.6C486.5,468.8,478.9,465.7,471.4,461.8z"/>
				<path class="st17" d="M556.2,427.8c7.2-2.2,11,0.3,17.6,11.8C566.9,436.1,560.5,434.1,556.2,427.8z"/>
				<path class="st17" d="M434.2,544.2c-6.7,6.5-10.6,14.1-19.9,15.3C425.1,545.4,422.2,548.3,434.2,544.2z"/>
				<path class="st18" d="M645.9,1005.8c-6.1-12.1-6.1-16.9,0-27.4C645.9,987.6,645.9,996.4,645.9,1005.8z"/>
				<path class="st17" d="M472.8,651.3c-7.3-4.7-11-11.3-10.6-21.5c5.1,7.2,9.4,13.5,11,21.2C473.3,651.1,472.7,651.3,472.8,651.3z"
					/>
				<path class="st19" d="M422.9,607.2c1.6-8.3,0.2-17.4,5.5-24.9C429.7,591.3,428.2,599.7,422.9,607.2z"/>
				<path class="st17" d="M741.9,997.4c-5.6-8.4,0.1-14.6,2.5-21.2C745.3,983.2,746.4,990.2,741.9,997.4z"/>
				<path class="st19" d="M640.9,423.1c3.8,6.3,10.2,11.3,10.1,20.4C643.4,438.2,642,430.8,640.9,423.1z"/>
				<path class="st16" d="M532.1,671.7c-4.7-2.7-8.4-5.7-9.3-11.2c-0.2-1-1.1-2.2,0.3-2.9c1.1-0.5,2.2-0.2,3.1,0.7
					C529.8,661.9,533.2,665.7,532.1,671.7z"/>
				<path class="st20" d="M435.2,528.7c-5.1,5.4-10.6,10.1-19.8,10.3C422.7,535.1,426.8,528,435.2,528.7z"/>
				<path class="st20" d="M553.1,443.1c-4.9-0.1-8.1-4.1-12.2-5.9c-2.1-0.9-3.7-2.9-6.1-3.5c8.5-1.3,13.7,1.5,18.1,9.4L553.1,443.1z
					"/>
				<path class="st20" d="M819.8,980.6c-3.8-2.5-6.7-4.3-9.4-6.2c-1.4-1-1.9-2.4-1.1-3.9c0.9-1.7,2.6-1.4,4-0.8
					C817.8,971.5,817.6,976.1,819.8,980.6z"/>
				<path class="st19" d="M500.7,641.8c5.7-1.1,10.1,2.4,15.3,3.5C509,652.3,505.5,643.7,500.7,641.8z"/>
				<path class="st19" d="M806.5,981.6c-7.5-4.2-7.5-4.2-6-12.3C804.4,972.7,806.6,976.5,806.5,981.6z"/>
				<path class="st20" d="M553,443.2c0.1,0.3,0.3,0.5,0.4,0.8c-0.2-0.1-0.5-0.1-0.7-0.2c0.1-0.2,0.3-0.4,0.4-0.7
					C553.1,443.1,553,443.2,553,443.2z"/>
				<path class="st21" d="M946.9,250.3c-1.5,7.4-5.2,12.7-11.5,15c-9.9,3.5-19.3,8.5-30,9.7c-3.9,0.4-1.1,3-0.1,4.3
					c7.4,9.9,13.7,20.4,18.5,31.8c11.8,27.9,19.2,57,23.9,86.8c7.4,47.5,15.5,94.9,25.7,141.9c6.5,29.6,13.6,59.1,16,89.4
					c2,24.8,2.7,49.6,2,74.4c-0.4,14.3,0.7,28.4,1.3,42.6c1.5,37.3-4,73.6-15.6,109c-8.5,25.7-20.7,50-28.8,75.8
					c-8.5,27.1-14.8,54.4-13,83.1c0.4,6.7,2.7,11.2,9.2,14.1c24.4,10.5,49.6,14.6,76,9.9c8.9-1.6,17.7-1.6,26.3,1.7
					c4.6,1.7,8.4,4.3,11.3,8.9c-5.9,1.3-11.7,0-17.4,0.4c-1.3,0.1-3.5-1-3.9,1c-0.4,2,2,1.8,3.2,2.3c6,2.8,11.6,6,14.9,13.7
					c-8.4-3.3-15.9-5.7-23.9-6.1c-1.9-0.1-3.8-0.3-5.7-0.1c-5.4,0.7-6.2,2.2-4.1,7.2c0.5,1.2,1.1,2.4,1.5,3.7
					c0.6,1.9,0.3,4.1-1.2,5.2c-1.6,1.2-2.3-1.2-3.5-1.9c-1.9-1.2-3.7-2.8-5.7-3.7c-20.1-9-39.9-19.2-62.1-22.7
					c-11.9-1.8-22.5-7.6-33.9-11.3c-1.8-0.6-1.8-1.7-1.2-3.1c8.9-21.5,3.3-42.5-2-63.5c-2.2-8.8-4.8-17.5-7.4-26.2
					c-0.8-2.6-0.9-4.3,2.1-5.8c3-1.4,6.1-3.2,7.1-7c-2.2-0.8-3.7,0.8-5.2,1.5c-20.7,9.6-42,17.2-64.7,20.2
					c-14.2,1.9-28.4,1.1-42.6-0.3c-22.2-2.3-44.5-4.5-66.3-9.4c-7.2-1.6-14.2-3.9-21.3-5.9c-1.3-0.4-2.6-0.9-3.9,1.2
					c3.7,1.7,7.3,3.5,11.1,5c2.3,0.9,3.2,2.1,2.5,4.7c-7.2,25.7-11.1,51.8-11,78.5c0,4.5-2.5,5.7-6.2,6.4
					c-17.6,3.4-35.1,7.1-52.1,12.8c-8.6,2.9-16.8,6.8-23.9,12.7c-1,0.8-1.9,2.3-3.3,1.7c-1.2-0.6-1.1-2.2-1.3-3.6
					c-0.3-2.7,1.1-6.7-2.3-7.5c-3.2-0.8-4.8,3.1-6.6,5.3c-4.1,5-6.5,10.9-9.3,17.3c-1.9-3.6-2.4-6.8-1.7-10.2
					c0.9-3.9,1.9-7.7,2.6-11.6c0.3-1.7,1.9-3.9-0.4-5.1c-1.9-0.9-4-0.4-5.9,0.9c-4,2.6-7.6,5.6-10.6,9.3c-1,1.2-1.6,2.9-3.4,3.5
					c-1.9-12.2,2.9-21.3,13.7-26.7c10-5,20.8-5.4,31.5-6.3c17.4-1.6,34.6-4.2,51.7-7.2c2.7-0.5,4.9-0.8,4.3-4.8
					c-4-25.8-8.7-51.5-14.7-76.9c-4.1-17.4-11.8-33.1-24-45.7c-17.6-18.2-26.7-40.3-34.1-63.8c-7.8-24.7-13.2-49.8-13.1-75.8
					c0-14.6,1.3-29.1,2.9-43.6c1.6-15.4,2.5-31,4.2-46.4c2.9-25.6,10.1-50.5,14.5-75.8c9.4-53.8,27.8-104.7,47.5-155.4
					c12.6-32.2,21.7-65.7,35.2-97.6c6.2-14.7,14.1-28.5,24-41.1c3-3.8,6.9-6.9,9.2-11.3c1.2-2.2,3.4-4.9,1.8-6.7
					c-1.8-2.1-5.5-1.4-8-0.4c-13.1,5.3-26.7,4.3-40,2c-8-1.4-13.3-8.5-18.2-14.7c-2.6-3.3,0.2-4,3.1-3.8c23.8,1.5,47.8,2,71.3,6.3
					c13.6,2.5,26.7,0.2,40.1-0.5c28.6-1.4,57.3-0.3,85.8,1.7c13.8,1,26-3.9,38.8-7.2C926.5,254.3,936.3,251.8,946.9,250.3z
					 M877.9,577.2c-2.7,1.5-4.6,2.6-6.5,3.8c-11.6,7.2-24.4,11.7-37.1,16.7c-22,8.7-44.3,16.5-67.1,22.4c-11.6,3-23.4,6.7-35.8,4.2
					c-2.7-0.5-4.2-1.5-5.2-4.1c-2.5-6.4-3.6-13.1-4.4-19.9c-0.3-2.1-1.2-4.6-3.7-4.2c-2.2,0.3-2,2.9-1.9,4.7
					c0.5,4.9,0.8,9.8,1.7,14.7c2.1,10.5,8.7,15.7,19.2,15.1c11.9-0.7,23.5-3.2,35.1-5.9c19.4-4.6,37.6-12.7,56.8-17.9
					c2.4-0.6,4.7-1.4,7.2-0.6c21.1,6.4,42.9,9,64.8,11c10.8,1,21.5,2,32.3,2.9c5.2,0.4,9.8-1.9,11.6-6.6c4.2-11.3,5.8-23.1,4.4-35.2
					c-0.3-2.9-1.9-5.9-4.6-5.6c-2.8,0.2-1.4,3.6-1.5,5.6c-0.4,9.8,1.3,19.7-2,29.4c-0.9,2.6-1.6,4.8-4.9,5.4
					c-6.6,1.2-13.2,1.8-19.8,0.9c-17.1-2.2-34.2-4.4-51.2-7.1c-7.4-1.1-15.1-1.4-22.1-4.7c22-14.8,46.3-21.2,73.5-22.3
					c-4.5-4.6-8.8-4.8-13-5c-6-0.4-12.5,0.6-18-1.3c-22.1-7.3-44.9-7.3-67.5-5.5c-16.5,1.3-32.3-0.9-48.1-5.2
					c-2.2-0.6-4.4-1.2-5.6-3.5c-0.8-1.6-2.3-1.6-3.9-1.7c-9.3-0.5-17.7,2.2-24.7,8.3c-3.3,2.8-6.2,6.2-7.2,10.7
					c-1,4.8,0.4,6,5.2,4.9c3.4-0.8,6.5-2.6,10.5-2.4c-0.6,1.2-1,2.1-1.3,3c-2,4.6-3.2,9.3-2.5,14.4c0.4,2.7,1.8,4.7,4.5,5.2
					c3,0.6,3-2.3,3.8-4c1.8-4.2,4.1-7.8,9.8-10c-3.4,5.9,0.1,10.1,1.6,14.6c0.6,1.9,1.3,3.7,4.1,3.9c2.7,0.2,3.7-1.2,4.8-3
					c3.1-5.2,6-10.5,9.6-15.4c4.4-6.1,9.5-11.5,17.7-12c18.5-1.3,37.1-2.1,55.6-3.8C861.1,571,869.1,573.2,877.9,577.2z
					 M734.9,320.2c-0.4,9.9,2.3,17.9,9.6,23.9c2.6,2.2,5.2,4.4,7.7,6.7c8,7.3,17.2,9.8,27.8,7.1c13-3.3,25.9-6.8,33.3-19.4
					c9.1-15.4,9.4-15.5-7.5-20.8c-10.1-3.2-18.7-8-25.8-15.6c-4-4.3-9-6.8-14.5-8.6c-14-4.4-25.8,2.1-29.2,16.1
					C735.5,313.3,734.6,317.1,734.9,320.2z M890.3,352.5c15.5,1.1,25.4-9.9,30.1-22.3c4.1-10.8-0.6-27.7-9.7-35.2
					c-4.7-3.9-9.8-5.9-16.2-4.7c-7.7,1.5-14.4,4.4-19.7,10.2c-6.2,7-13.1,13.2-21.2,17.8c-5.5,3.1-5.6,7-3.7,11.9
					c1.2,3.2,3.2,6,5.6,8.5C864.9,349,877.3,351.6,890.3,352.5z M847.8,377c-12.2,0-23.2,3.2-31.9,12.2c-6.4,6.7-6,14.2,0.6,20.5
					c14.7,13.9,41.8,11.4,54.1-10.9c3.3-6,0.6-13.6-5.4-18C860,377,854,376.8,847.8,377z M834.3,532c8.4,0.3,15.3-3.5,21.2-9.6
					c0.8-0.9,2.4-1.7,1.2-3.3c-1.2-1.5-2.6-1.2-3.9,0c-1,0.9-2.1,1.6-3.2,2.4c-10,7.1-20.5,7.1-30.4-0.1c-1.5-1.1-3.1-2.2-4.6-3.4
					c-1-0.7-2.1-1.2-3-0.1c-0.7,0.9,0.2,1.7,0.7,2.5C817.7,528,824.7,532.1,834.3,532z"/>
				<path class="st18" d="M877.9,577.2c-8.8-4-16.8-6.3-25.9-5.4c-18.5,1.7-37,2.5-55.6,3.8c-8.2,0.6-13.3,5.9-17.7,12
					c-3.5,4.9-6.4,10.3-9.6,15.4c-1.1,1.8-2.1,3.2-4.8,3c-2.8-0.2-3.5-2-4.1-3.9c-1.4-4.6-5-8.7-1.6-14.6c-5.7,2.1-8.1,5.8-9.8,10
					c-0.7,1.7-0.7,4.6-3.8,4c-2.7-0.5-4.1-2.6-4.5-5.2c-0.7-5,0.6-9.8,2.5-14.4c0.4-0.9,0.8-1.7,1.3-3c-3.9-0.2-7.1,1.6-10.5,2.4
					c-4.8,1.1-6.2-0.1-5.2-4.9c0.9-4.5,3.9-7.8,7.2-10.7c7-6.1,15.4-8.7,24.7-8.3c1.6,0.1,3.1,0.1,3.9,1.7c1.2,2.3,3.4,2.9,5.6,3.5
					c15.7,4.3,31.5,6.5,48.1,5.2c22.7-1.8,45.4-1.8,67.5,5.5c5.5,1.8,12,0.9,18,1.3c4.2,0.3,8.5,0.5,13,5
					c-27.2,1.1-51.6,7.5-73.5,22.3c7,3.3,14.7,3.6,22.1,4.7c17,2.6,34.1,4.8,51.2,7.1c6.6,0.9,13.2,0.3,19.8-0.9
					c3.3-0.6,4.1-2.8,4.9-5.4c3.3-9.6,1.5-19.6,2-29.4c0.1-2.1-1.3-5.4,1.5-5.6c2.7-0.2,4.3,2.8,4.6,5.6c1.5,12.1-0.1,23.9-4.4,35.2
					c-1.8,4.7-6.4,7-11.6,6.6c-10.8-0.8-21.5-1.9-32.3-2.9c-21.9-2-43.7-4.6-64.8-11c-2.5-0.8-4.8,0-7.2,0.6
					c-19.2,5.1-37.4,13.3-56.8,17.9c-11.6,2.8-23.2,5.3-35.1,5.9c-10.6,0.6-17.1-4.6-19.2-15.1c-1-4.8-1.2-9.8-1.7-14.7
					c-0.2-1.9-0.3-4.4,1.9-4.7c2.5-0.4,3.4,2.1,3.7,4.2c0.8,6.8,1.8,13.5,4.4,19.9c1,2.6,2.5,3.6,5.2,4.1
					c12.4,2.5,24.2-1.2,35.8-4.2c22.9-5.8,45.1-13.7,67.1-22.4c12.7-5,25.4-9.5,37.1-16.7C873.3,579.9,875.3,578.8,877.9,577.2z
					 M747.7,590.4c6.1-6.5,12.6-12.4,19.4-18.1c1.3-1.1,4.2-2,2.8-4.1c-1-1.6-3.5-0.5-5.2,0.4c-9,4.4-14.1,12.1-17.7,21.1
					c-0.1,0.5-0.4,1.2-0.2,1.3C747.2,591.4,747.5,590.9,747.7,590.4z M786.7,572.3c-7.3-2.9-13.7-1.1-18.4,4.8
					c-5,6.2-6.4,17.6-2.8,23.2C769.5,588.7,775.9,578.9,786.7,572.3z M737.6,573.8c8.2-0.8,16.1-2.4,21.9-9.9
					C749.8,563,743.5,568,737.6,573.8z"/>
				<path class="st22" d="M734.9,320.2c-0.3-3.1,0.6-6.8,1.5-10.5c3.4-14,15.2-20.6,29.2-16.1c5.4,1.7,10.4,4.3,14.5,8.6
					c7.2,7.5,15.8,12.4,25.8,15.6c16.9,5.3,16.6,5.4,7.5,20.8c-7.5,12.6-20.3,16.1-33.3,19.4c-10.6,2.7-19.8,0.2-27.8-7.1
					c-2.5-2.3-5.1-4.5-7.7-6.7C737.2,338.1,734.5,330.1,734.9,320.2z M775.1,309.6c-3.6-4.8-7.9-7.1-12.7-8.3
					c-9.7-2.5-17.6,0.5-20.3,7.8c-4.5,12.2-5.3,23.4,8.2,32.5c1.9,1.3,3.6,2.8,5.5,4.1c16.9,11.8,47.6,3.8,56.8-14.8
					c0.5-1,0.8-2.1,1.4-3.4c-5.6-1.6-11.3-2.8-16.5-4.9c-4.1-1.7-7.4-3.4-9.9,2.1c-0.6,1.4-2.5,2.4-4,3.1c-3.8,1.9-7.8,2.1-11.3-0.4
					c-3.7-2.6-5.4-6.5-5-10.9C767.5,312.2,770.7,310.4,775.1,309.6z"/>
				<path class="st23" d="M890.3,352.5c-13-0.9-25.4-3.5-34.9-13.7c-2.3-2.5-4.3-5.3-5.6-8.5c-1.9-4.9-1.7-8.7,3.7-11.9
					c8.1-4.6,15-10.9,21.2-17.8c5.3-5.9,12-8.8,19.7-10.2c6.4-1.2,11.5,0.8,16.2,4.7c9,7.5,13.7,24.4,9.7,35.2
					C915.8,342.6,905.8,353.7,890.3,352.5z M864.1,317.8c-1.8,1.5-3.4,3.1-5.3,4.3c-5.3,3.1-4.4,6.8-1.2,10.6
					c8.8,10.6,20.3,17.3,33.7,15c17.2-2.9,31.1-14.3,23.6-34.2c-2.7-7.2-7.1-13.1-15.5-14.1c-9.1-1.1-17.1,1-23.1,9.1
					c5.2,0.2,8,2.9,7.6,7.6c-0.4,4.8-3.5,7.9-8.4,8.7C869,325.9,866.2,324.1,864.1,317.8z M876,314.3c0-1.1-0.5-1.9-1.9-2
					c-1.6-0.1-2.4,0.7-2.5,2.2c0,1.1,0,2.3,1.6,2.3C874.8,316.8,875.5,315.8,876,314.3z"/>
				<path class="st24" d="M847.8,377c6.1-0.2,12.2,0.1,17.4,3.8c6,4.4,8.7,12,5.4,18c-12.2,22.3-39.4,24.8-54.1,10.9
					c-6.6-6.3-7-13.9-0.6-20.5C824.6,380.1,835.7,377,847.8,377z M839.5,411.9c12,0.7,19-6.3,25.1-14.2c3.7-4.8,0.4-12.3-5.9-13
					c-13.6-1.3-26.9-0.2-37.8,9.5c-5.2,4.6-4.5,9.9,1.5,13.4C827.7,410.8,833.8,412.1,839.5,411.9z"/>
				<path class="st22" d="M842.3,452.6c-1.2,1.4-6,6.8-14.4,8.1c-9.7,1.5-16.8-3.8-18-4.7c3.7-0.1,6.8-0.5,9-1
					c2.6-0.5,5.4-1.7,10.9-3.9c1.6-0.6,3.3-1.5,4.6-3.3c0.5-0.7,0.8-1.6,1-3c0.5-4.3,1.4-8.6,3.7-12.4c0.6-1,1.2-2.1,2.5-1.9
					c1.4,0.2,1.5,1.6,1.7,2.6c0.2,1.5,0.7,3.1,0.3,4.5c-2.2,7.5,3.5,9,9.2,12.9c2.3,1.6,11.2-0.2,13.2,1.8c1.1,1.1,2.8,2.2,1.6,4.3
					c-1.1,1.9-2.9,1.5-4.5,1.6c-2.3,0.2-11,3-12.6,1.6C847.8,457.5,845.2,455.1,842.3,452.6z"/>
				<path class="st25" d="M834.3,532c-9.7,0.1-16.7-4-21.9-11.5c-0.5-0.7-1.4-1.5-0.7-2.5c0.9-1.1,2-0.7,3,0.1
					c1.5,1.1,3.1,2.2,4.6,3.4c9.9,7.2,20.4,7.3,30.4,0.1c1.1-0.8,2.2-1.5,3.2-2.4c1.3-1.2,2.7-1.5,3.9,0c1.2,1.5-0.4,2.4-1.2,3.3
					C849.7,528.5,842.7,532.4,834.3,532z"/>
				<path class="st26" d="M786.7,572.3c-10.8,6.7-17.2,16.4-21.2,28c-3.6-5.6-2.2-17,2.8-23.2C773.1,571.2,779.4,569.4,786.7,572.3z
					"/>
				<path class="st27" d="M746.8,589.6c3.6-9,8.7-16.7,17.7-21.1c1.7-0.8,4.2-1.9,5.2-0.4c1.4,2.1-1.5,3-2.8,4.1
					c-6.8,5.7-13.3,11.6-19.4,18.1C747.4,590.1,747.1,589.8,746.8,589.6z"/>
				<path class="st26" d="M737.6,573.8c5.9-5.8,12.2-10.9,21.9-9.9C753.7,571.5,745.8,573,737.6,573.8z"/>
				<path class="st27" d="M747.7,590.4c-0.2,0.5-0.5,1-1,0.6c-0.2-0.1,0.1-0.9,0.2-1.3C747.1,589.8,747.4,590.1,747.7,590.4z"/>
				<path class="st28" d="M775.1,309.6c-4.3,0.8-7.6,2.6-7.9,6.8c-0.3,4.3,1.4,8.3,5,10.9c3.6,2.5,7.5,2.4,11.3,0.4
					c1.5-0.8,3.3-1.8,4-3.1c2.5-5.4,5.8-3.8,9.9-2.1c5.2,2.1,10.8,3.3,16.5,4.9c-0.5,1.3-0.9,2.4-1.4,3.4
					c-9.3,18.6-40,26.6-56.8,14.8c-1.9-1.3-3.6-2.8-5.5-4.1c-13.5-9.1-12.7-20.3-8.2-32.5c2.7-7.3,10.6-10.2,20.3-7.8
					C767.2,302.5,771.5,304.8,775.1,309.6z"/>
				<path class="st28" d="M864.1,317.8c2.1,6.3,4.9,8.1,11.4,7c4.8-0.8,8-3.8,8.4-8.7c0.4-4.7-2.4-7.4-7.6-7.6
					c5.9-8.1,14-10.1,23.1-9.1c8.4,1,12.8,6.9,15.5,14.1c7.5,19.9-6.3,31.3-23.6,34.2c-13.4,2.2-24.9-4.5-33.7-15
					c-3.2-3.9-4.1-7.6,1.2-10.6C860.7,320.9,862.3,319.3,864.1,317.8z"/>
				<path class="st27" d="M876,314.3c-0.5,1.5-1.2,2.5-2.7,2.5c-1.6,0-1.6-1.1-1.6-2.3c0-1.6,0.9-2.3,2.5-2.2
					C875.4,312.4,875.9,313.2,876,314.3z"/>
				<path class="st29" d="M839.5,411.9c-5.7,0.3-11.7-1-17.2-4.3c-6-3.5-6.6-8.8-1.5-13.4c10.9-9.7,24.3-10.8,37.8-9.5
					c6.4,0.6,9.7,8.2,5.9,13C858.4,405.6,851.4,412.6,839.5,411.9z"/>
			</g>
		</g>
	</g>
	<g>
		<path class="st30" d="M753.5,251.6c0-39.7,32.2-71.9,71.9-71.9c39.7,0,71.9,32.2,71.9,71.9"/>
		<path class="st31" d="M844.2,257.6l11.6,0.9c6.6,0.5,12.4-4.4,12.9-11l4.7-58c0.5-6.6-4.4-12.4-11-12.9l-11.6-0.9
			c-6.6-0.5-12.4,4.4-12.9,11l-4.7,58C832.7,251.2,837.6,257,844.2,257.6z"/>
		<path class="st32" d="M841.3,259.5l11.6,0.9c6.6,0.5,12.4-4.4,12.9-11l4.7-58c0.5-6.6-4.4-12.4-11-12.9l-11.6-0.9
			c-6.6-0.5-12.4,4.4-12.9,11l-4.7,58C829.8,253.1,834.8,258.9,841.3,259.5z"/>
		<path class="st31" d="M805.5,254l-11.6,0.9c-6.6,0.5-12.4-4.4-12.9-11l-4.4-54c-0.5-6.6,4.4-12.4,11-12.9l11.6-0.9
			c6.6-0.5,12.4,4.4,12.9,11l4.4,54C817,247.6,812.1,253.4,805.5,254z"/>
		<path class="st32" d="M807.9,255.4l-11.6,0.9c-6.6,0.5-12.4-4.4-12.9-11l-4.4-54c-0.5-6.6,4.4-12.4,11-12.9l11.6-0.9
			c6.6-0.5,12.4,4.4,12.9,11l4.4,54C819.4,249,814.4,254.8,807.9,255.4z"/>
		<path class="st30" d="M841.3,258H810v-77.4c0-8.6,7-15.7,15.7-15.7h0c8.6,0,15.7,7,15.7,15.7V258z"/>
		<path class="st31" d="M904.2,267.1H743.8c-4.8,0-8.8-4-8.8-8.8l0,0c0-4.8,4-8.8,8.8-8.8h160.4c4.8,0,8.8,4,8.8,8.8l0,0
			C913,263.1,909,267.1,904.2,267.1z"/>
		<path class="st30" d="M906.4,268H741.6c-3.7,0-6.6-3-6.6-6.6l0,0c0-3.7,3-6.6,6.6-6.6h164.7c3.7,0,6.6,3,6.6,6.6l0,0
			C913,265,910,268,906.4,268z"/>
	</g>
	<path class="st12" d="M770,569l54,3.7c0.2-10.7,1-12.7-1.1-12.7c-8.9,0-59.9-14.3-63.9-15.9V544l-118.1-26.7L618,607
		c0,0,0.1,0.6,0.3,1.9l-0.6-1.7c-4.6,36.1-7.8,66.5-9.9,89.3c-3.3,36-3.7,48.9-2.9,63.5c0.2,3.9-2.8,16.7,3.1,29.7
		c0.8,1.8,1.6,3.5,2.9,5.3c8,10.8,25.1,11,37,11c32.5,0,48.7-0.1,59-2c47-8.8,86-30.8,107.2-44.4c1.1-17.7,2.2-35.5,3.3-53.4
		c1.8-30.4,4-68.4,5.3-98.3L747,630l-0.4-2l-0.3,1.9c-12.5,19.9-31,31.3-47.3,28.1c-3.4-0.7-8-2.2-13-6c-3.7-5.3-7.3-10.7-11-16
		c-1.8-5.2-4.7-15.3-3-28c2-15.3,9.5-25.7,13-30c4.2-4.6,12.4-12.4,25-17c21.7-8,40.8-1.2,46.2,0.9l-0.9,6.3L770,569z"/>
	<path class="st33" d="M993,780c-2.5,35.6,0.2,19.5-5.7,24.5C977.3,813.2,896,835,814,760l7-155.1l22-1.9l54,11c0,0-8,18,40,25
		s35-49,35-49c-4-37-32-40-32-40c-6-4-22,0-22,0c-17,6-21,29-21,29l-44.1-11.7l-29,5.3l-1.8-1l0.9-12.7l151.1-20
		c4,18.6,8,37.1,12,55.7c5.6,37.5,7.9,69.6,8.9,94.3C996.5,728.5,994.7,755.1,993,780z"/>
	<path class="st14" d="M611.5,661.2c0.5-0.2,138.3,23.5,207.1-33.9c0.4-0.3-1.1,48.9-1.1,48.9c-25.2,17.3-47.7,19.4-62.5,22.8
		c-28.3,6.4-51.7,9-92,5c-23.5-2.3-42.7-5.5-56-8L611.5,661.2z"/>
	<path class="st14" d="M605.5,733.2c0.5-0.2,144.3,23.5,213.1-33.9c0.4-0.3-1.1,48.9-1.1,48.9c-25.2,17.3-47.7,19.4-62.5,22.8
		c-28.3,6.4-51.7,9-92,5c-23.5-2.3-44.7-5.5-58-8L605.5,733.2z"/>
	<path class="st5" d="M993.9,648.7c0,0-65.9,44.3-174.9-21.7l-2,47c0,0,118,66,179,16L993.9,648.7z"/>
	<path class="st5" d="M995.5,721.5c-3.5,19.5-122.5,29.9-178-21.3L817,749c0,0,146,68,178,25L995.5,721.5z"/>
	<polygon class="st34" points="815.6,606 821.6,606 817,761 811,761 	"/>
	<polygon class="st34" points="823,559 822.7,569 816.7,569 817,559 	"/>
</g>
<g id="Layer_2">
	<g>
		<g>
			<path class="st14" d="M904.2,445c2.7,4.3-1.9,13.1-4.1,16.7c-1.4,2.4-3.1,4.7-4.9,6.7c-0.2,0.3-6.6,6.4-7.1,6.1
				c-1.5-1-6.2,0.7-4.1,2c6.1,3.8,13.9-4.7,17.3-9c3.2-4,5.9-8.6,7.4-13.6c0.9-3.1,2.2-7.3,0.3-10.3
				C907.9,442.1,903.1,443.2,904.2,445L904.2,445z"/>
		</g>
	</g>
	<path class="st18" d="M877.9,577.2c-8.8-4-16.8-6.3-25.9-5.4c-18.5,1.7-37,2.5-55.6,3.8c-8.2,0.6-13.3,5.9-17.7,12
		c-3.5,4.9-6.4,10.3-9.6,15.4c-1.1,1.8-2.1,3.2-4.8,3c-2.8-0.2-3.5-2-4.1-3.9c-1.4-4.6-5-8.7-1.6-14.6c-5.7,2.1-8.1,5.8-9.8,10
		c-0.7,1.7-0.7,4.6-3.8,4c-2.7-0.5-4.1-2.6-4.5-5.2c-0.7-5,0.6-9.8,2.5-14.4c0.4-0.9,0.8-1.7,1.3-3c-3.9-0.2-7.1,1.6-10.5,2.4
		c-4.8,1.1-6.2-0.1-5.2-4.9c0.9-4.5,3.9-7.8,7.2-10.7c7-6.1,15.4-8.7,24.7-8.3c1.6,0.1,3.1,0.1,3.9,1.7c1.2,2.3,3.4,2.9,5.6,3.5
		c15.7,4.3,31.5,6.5,48.1,5.2c22.7-1.8,45.4-1.8,67.5,5.5c5.5,1.8,12,0.9,18,1.3c4.2,0.3,8.5,0.5,13,5c-27.2,1.1-51.6,7.5-73.5,22.3
		c7,3.3,14.7,3.6,22.1,4.7c17,2.6,34.1,4.8,51.2,7.1c6.6,0.9,13.2,0.3,19.8-0.9c3.3-0.6,4.1-2.8,4.9-5.4c3.3-9.6,1.5-19.6,2-29.4
		c0.1-2.1-1.3-5.4,1.5-5.6c2.7-0.2,4.3,2.8,4.6,5.6c1.5,12.1-0.1,23.9-4.4,35.2c-1.8,4.7-6.4,7-11.6,6.6
		c-10.8-0.8-21.5-1.9-32.3-2.9c-21.9-2-43.7-4.6-64.8-11c-2.5-0.8-4.8,0-7.2,0.6c-19.2,5.1-37.4,13.3-56.8,17.9
		c-11.6,2.8-23.2,5.3-35.1,5.9c-10.6,0.6-17.1-4.6-19.2-15.1c-1-4.8-1.2-9.8-1.7-14.7c-0.2-1.9-0.3-4.4,1.9-4.7
		c2.5-0.4,3.4,2.1,3.7,4.2c0.8,6.8,1.8,13.5,4.4,19.9c1,2.6,2.5,3.6,5.2,4.1c12.4,2.5,24.2-1.2,35.8-4.2
		c22.9-5.8,45.1-13.7,67.1-22.4c12.7-5,25.4-9.5,37.1-16.7C873.3,579.9,875.3,578.8,877.9,577.2z M747.7,590.4
		c6.1-6.5,12.6-12.4,19.4-18.1c1.3-1.1,4.2-2,2.8-4.1c-1-1.6-3.5-0.5-5.2,0.4c-9,4.4-14.1,12.1-17.7,21.1c-0.1,0.5-0.4,1.2-0.2,1.3
		C747.2,591.4,747.5,590.9,747.7,590.4z M786.7,572.3c-7.3-2.9-13.7-1.1-18.4,4.8c-5,6.2-6.4,17.6-2.8,23.2
		C769.5,588.7,775.9,578.9,786.7,572.3z M737.6,573.8c8.2-0.8,16.1-2.4,21.9-9.9C749.8,563,743.5,568,737.6,573.8z"/>
</g>
</svg>
