<?xml version="1.0" encoding="utf-8"?>
<!-- Generator: Adobe Illustrator 23.0.6, SVG Export Plug-In . SVG Version: 6.00 Build 0)  -->
<svg version="1.1" xmlns="http://www.w3.org/2000/svg" xmlns:xlink="http://www.w3.org/1999/xlink" x="0px" y="0px"
	 viewBox="0 0 1024 1024" style="enable-background:new 0 0 1024 1024;" xml:space="preserve">
<g id="Layer_2">
</g>
<g id="Layer_1">
	<g>
		<path style="fill:#58BA51;" d="M962.2,502.6c0,8-0.2,16.1,0,24.1c0.1,2.4-1.9,4.7-0.1,7.1c-0.8,2,0.1,4.2-0.6,6.2
			c-0.1,2-0.1,3.9-0.2,5.9c-0.8,1.7,0.1,3.6-0.5,5.4c-0.1,1.5-0.1,3-0.2,4.5c-0.8,1.4,0,3.1-0.6,4.5c-0.1,1-0.1,2-0.2,3
			c-0.8,1.2,0,2.6-0.6,3.8c-3.1,22.5-6.9,44.9-12.9,66.8c-8.4,30.9-19.8,60.6-34.6,88.9c-8.3,16-17.4,31.6-28.6,46.3
			c0-2.9,0-5.7,0-8.6c-0.7-4.1,0.3-8.2-0.5-12.2c0.4-6.4-0.1-12.8-0.2-19.3c-0.4-3-0.4-6,0-8.9c3.5-7.3,8.9-13.5,12.2-20.9
			c4.2-9.5,7.2-19.5,11.3-29.1c3.7-8.8,6.6-18,9.6-27.1c4-12.2,7.3-24.6,9.9-37.1c2.7-12.7,5.1-25.5,6.6-38.3
			c1.1-9.2,2.6-18.5,2.4-27.9c0.7-1.5,0-3.2,0.5-4.8c0.6-12.8,0.6-25.6-0.1-38.3c-0.4-1.5,0.2-3.2-0.5-4.7c-0.1-2.4-0.2-4.8-0.2-7.3
			c-0.5-1.3,0.1-2.7-0.5-4c-0.1-1.4-0.1-2.8-0.2-4.3c-0.6-1.3,0.1-2.7-0.5-4c-1-11.1-2.6-22.1-4.7-33.1c-1.6-8-3-16.1-5.1-23.9
			c-3.8-14.2-7.6-28.5-12.8-42.3c-3.3-8.6-6.5-17.2-10.2-25.6c-4.5-10.3-9.4-20.5-14.8-30.5c-10.7-19.8-22.7-38.7-36.5-56.5
			c-6.8-8.8-13.9-17.5-21.3-25.9c-9.5-10.8-19.8-20.7-30.1-30.6c-8-7.6-16.8-14.5-25.5-21.5c-15.7-12.5-32.4-23.4-49.6-33.5
			c-13.8-8.1-28.1-15.2-42.9-21.5c-12.1-5.1-24.3-10.1-36.9-14c-17.9-5.6-36-10.5-54.4-13.8c-10.9-1.9-21.9-3.7-33-4.6
			c-1.3-0.6-2.7,0-4-0.5c-1.7-0.1-3.4-0.1-5-0.2c-1.3-0.6-2.7,0-4-0.5c-2.7-0.1-5.3-0.2-8-0.2c-1.5-0.6-3.2,0-4.8-0.5
			c-11.5-0.5-23.1-0.5-34.6,0c-1.6,0.4-3.2-0.2-4.8,0.5c-2.7,0.1-5.3,0.2-8,0.2c-1.3,0.5-2.7-0.1-4,0.5c-1.7,0.1-3.3,0.1-5,0.2
			c-1.3,0.5-2.7-0.1-4,0.5c-6.7,0.3-13.4,1.2-20,2.4c-1,0.7-2.2-0.1-3.1,0.6c-11.2,1.1-22.1,3.7-32.9,6.4
			c-9.7,2.4-19.3,5.5-28.9,8.3c-21.7,6.3-42.3,15.2-62.4,25.2c-24.3,12.1-47,26.6-68.5,43.2c-0.8,0.6-1.5,1.4-2.2,2
			c-0.7,0.8-1.4,1.6-2.4,2c-6.3,4.1-11.7,9.3-17.3,14.2c-9.6,8.3-18.6,17.4-27.4,26.6c-16.7,17.6-31.7,36.6-45.1,56.9
			c-10.3,15.6-19.6,31.6-27.8,48.4c-15.4,31.8-26.8,64.9-33.8,99.5c-2.3,11.3-4.6,22.6-5.3,34.1c-0.8,1.2,0,2.6-0.6,3.8
			c-0.1,1-0.1,2-0.2,3c-0.8,1.2-0.1,2.5-0.5,3.7c-0.1,1.7-0.2,3.4-0.3,5c-0.6,1.3,0,2.7-0.5,4c-0.1,2.4-0.2,4.8-0.2,7.3
			c-0.7,1.8,0.1,3.7-0.5,5.5c-0.5,12.8-0.8,25.6,0.1,38.3c0.4,1.5-0.2,3.2,0.5,4.7c-0.3,10.4,1.2,20.6,2.5,30.8
			c2.4,19.6,6.5,38.8,11.7,57.8c3.7,13.6,7.9,27.1,13.4,40c2.4,5.7,0.9,10.7,0.1,15.9c-1.8,11.6-3.9,23.1-5.9,34.7
			c0,0.2-0.3,0.3-0.5,0.6c-4.2-7-7.4-14.4-10.6-21.8C96.8,689.7,93,681,89.8,672c-4.3-12.1-8.4-24.4-11.8-36.8
			c-3.1-11.1-5.6-22.4-7.8-33.7c-1.7-8.6-3.2-17.2-4.2-25.9c-0.6-5.4-1.1-10.8-1.7-16.1c-0.4-1.2,0.2-2.6-0.5-3.8
			c-0.1-1.5-0.1-2.9-0.2-4.4c-0.6-1.8,0.2-3.7-0.5-5.4c-0.1-1.9-0.1-3.9-0.2-5.8c-0.7-3.3,0.3-6.6-0.6-9.9c0-9.2,0-18.3,0-27.5
			c1-3.5-0.1-7,0.6-10.5c0.1-1.9,0.1-3.9,0.2-5.8c0.8-1.7-0.1-3.6,0.5-5.4c0.1-1.4,0.1-2.9,0.2-4.3c0.7-1.2,0-2.6,0.5-3.9
			c0.1-1.4,0.2-2.9,0.3-4.3c0.7-1.3,0-2.7,0.6-4c2-18.4,5.4-36.6,9.7-54.7c3.5-14.4,7.7-28.6,12.5-42.6c3.9-11.1,8.3-22.1,13.1-32.9
			c4.8-10.7,9.8-21.3,15.4-31.5c9.3-17,19.5-33.6,31-49.3c6.3-8.6,12.8-17.2,19.6-25.4c4.5-5.4,9.3-10.5,14-15.8
			c7.1-8,14.7-15.7,22.5-23c10.8-10.2,22.1-19.8,33.9-28.9c15.6-12.1,31.9-23.1,48.9-33.1c16.3-9.5,33.1-17.8,50.4-25.2
			c25-10.7,50.7-18.8,77.2-24.8c16.1-3.7,32.4-6.3,48.7-8.2c1.2-0.6,2.6,0.2,3.8-0.6c8.5-0.6,17-1.1,25.5-1.7
			c3.5-0.6,7.2,0.3,10.7-0.5c6.8,0,13.7,0,20.5,0c1.4,0.5,2.8,0.5,4.3,0c0.3,0,0.6,0,1,0c1.8,0.7,3.7,0,5.5,0.5
			c2.4,0.1,4.9,0.2,7.3,0.2c1.7,0.8,3.7-0.1,5.4,0.5c1.7,0.1,3.4,0.2,5,0.2c1.3,0.6,2.7,0,4,0.5c1.2,0.1,2.5,0.1,3.7,0.2
			c1.2,0.8,2.6,0,3.8,0.6c1,0.1,2,0.1,2.9,0.2c1.2,0.9,2.6-0.2,3.8,0.6c11.2,1.8,22.5,3.3,33.6,5.6c9.5,1.9,19,4.4,28.3,7
			c31.8,8.7,62.3,20.9,91.5,36.3c9.6,5.1,19,10.6,28.3,16.4c12.2,7.7,24.1,15.9,35.5,24.8c0.5,0.4,1.1,0.6,1.6,0.9
			c0.9,0.1,1.4,0.7,1.6,1.5c2.1,1.9,4.2,3.8,6.7,5.2c0.7,0.3,1.3,0.6,1.6,1.3c14.6,12.5,28.7,25.5,41.9,39.5
			c23.2,24.6,43.4,51.6,60.6,80.8c1.9,3.2,3.8,6.4,5.7,9.6c0.9,0.5,1,1.5,1.3,2.3c3.6,7.2,7.2,14.3,10.7,21.5
			c12.2,25.6,22,52.1,29.2,79.5c4.3,16.6,7.6,33.5,10.3,50.4c1.1,6.7,1.7,13.5,2.5,20.3c0.5,1.3-0.2,2.7,0.5,3.9
			c0.1,1.4,0.1,2.9,0.2,4.3c0.6,1.5-0.2,3.2,0.5,4.7c0.1,2.2,0.1,4.3,0.2,6.5C962.4,495.5,961.3,499.1,962.2,502.6z"/>
		<path style="fill:#58BA51;" d="M557.2,559.5c0,18,0.1,36,0,54c0,2.7,0.8,4.7,2.8,6.6c5.1,5,10,10.1,15.2,15.1
			c1.5,1.4,2.1,2.9,2.1,4.9c0,27.1,0,54.2,0,81.4c0,1.8-0.6,3-1.8,4.3c-9,9.7-14.2,21.1-14.9,34.3c-0.4,7.9,1.2,15.6,4.3,23.3
			c-17.2-2-29.9,5.2-40,18.4c-0.2-0.1-0.6-0.2-0.8-0.5c-11.4-15.5-27.6-19-45.5-17.8c-1.3,0.1-2.3,0.3-2.9-1.3
			c-8.7-21.9-26.2-31.8-48.3-35.1c-2.9-0.4-3-1.7-3-3.9c0-34.4,0-68.7,0-103.1c0-2,0.4-3.5,1.9-4.9c24.1-24,48.1-48,72.1-72.1
			c2-2,2.9-1.5,4.6,0.2c11.3,11.5,22.8,22.9,34.2,34.2c3.3,3.3,5.1,3.2,7.3-0.2c0.7-6.3,0.2-12.6,0.3-19c0.1-5.5,0.1-10.9,0-16.4
			c0-2.2,0.7-2.9,2.8-2.7C550.8,559.4,554.1,558.7,557.2,559.5z"/>
		<path style="fill:#58BA51;" d="M540.5,551.9c-3,0.5-3.1,2.8-3.1,5.1c0,8.1,0,16.2,0,24.3c0,1.3,0,2.7,0,5.1
			c-1.6-1.5-2.5-2.3-3.4-3.2c-9.7-9.7-19.4-19.4-29.1-29.1c-3.4-3.4-4.7-3.3-8,0c-10.4,10.4-20.8,20.8-31.3,31.2
			c-0.8,0.8-1.5,2-3.3,2.4c0-4.1,0-8,0-11.9c0-51.9,0-103.9,0-155.8c0-2.2,0.7-4.9-2.4-6c-1.3-0.7-2.7-0.3-4-0.3
			c-16.4,0-32.9,0-49.3-0.1c-1.2,0-2.7,0.8-3.7-0.7c0.1-1.4,0.2-2.7,0.2-4.1c0-14.1,0.2-28.2-0.1-42.4c-0.1-4.3,1.3-7.2,4.5-9.9
			c8.8-7.6,17.4-15.3,26.1-23c6.6-5.9,13.3-11.8,19.9-17.7c6.4-5.6,12.8-11.2,19.1-16.9c1.9-1.8,2.9-0.4,4,0.6
			c5.2,4.5,10.2,9.1,15.4,13.7c17.1,15.2,34.2,30.4,51.4,45.5c2,1.7,2.6,3.6,2.6,6.1c-0.1,60.6-0.1,121.2,0,181.8c0,1.5,0,3,0.1,4.5
			C544.3,552.4,542.2,551,540.5,551.9z"/>
		<path style="fill:#58BA51;" d="M300.7,489.4c-0.1,12.2-0.3,24.5-0.2,36.7c0,3.7-1,5.9-4.5,8c-28.1,16.9-55.9,34.2-83.9,51.2
			c-2.7,1.6-3.8,3.5-3.7,6.7c0.2,8.6,0.1,17.2-0.1,25.9c-0.1,2.7,0.9,4.7,2.7,6.6c15.5,16.6,27.8,35,32.9,57.5
			c5,21.9-0.3,41.3-14.7,58.3c-7,8.3-15,15.2-25.1,19.6c-6.4,2.8-12.4,6.6-17.7,11.2c-1.7,1.5-3.1,1-4.8,0.4
			c-5.4-2.2-9.3-6.2-12.8-10.7c-6.4-8.5-10.6-18.1-13.5-28.2c-3-10.7-7.7-20.8-12.2-30.9c-3.3-7.3-5.2-14.9-6.4-22.7
			c-0.4-2.6-0.8-5.1-1.1-7.7c-0.7-1,0-2.2-0.5-3.3c-1-10-0.8-20.1-0.8-30.2c0.6-1.3,0-2.7,0.5-4c0.8-17.8,7.3-34,12.8-50.6
			c4.6-14.2,10.4-27.7,19.1-39.9c8.8-12.2,20-21.8,33.1-29.2c21.5-12.1,44.8-18.8,69-22.9c6.9-1.2,13.8-1.8,20.7-2.3
			C293.3,488.8,297,487.9,300.7,489.4z"/>
		<path style="fill:#58BA51;" d="M553.5,551.2c0-98.2,0-196.5,0-294.7c1-0.7,2.2-0.4,3.3-0.4c19.2,0,38.5,0.1,57.7-0.1
			c3.1,0,3.9,0.9,3.9,4c-0.1,97.4-0.1,194.7-0.1,292.1c0,1.2,0.5,2.5-0.5,3.6c-4.4,0-8.7-0.1-13.1-0.1c-4.5,0-5.5,1-5.5,5.5
			c0,27.9-0.1,55.7,0.1,83.6c0,3.3-0.7,4.5-4.1,4.1c-2.7-0.3-5.5-0.1-8.2,0c-1.6,0.1-2.3-0.6-2.1-2.2c0-0.4-0.1-0.8,0-1.1
			c1.5-8.3-1.7-14.5-8.2-19.8c-4.3-3.5-9.6-7.1-11.4-12.1c-1.8-4.9-0.5-10.9-0.5-16.3c0-13.5,0-27,0-40.5c0-2.2,0-4.4-2.9-4.8
			C559.2,551,556.3,552.3,553.5,551.2z"/>
		<path style="fill:#58BA51;" d="M117.8,758.9c-0.1-1.7-0.1-3.5-0.2-5.2c-0.3-5.2-0.4-10.5,0-15.7c1-22.2,6.8-43.6,10.1-65.4
			c1.8,15.6,7,30,13.7,43.8c3.7,7.7,5.5,16,8.5,23.9c3.7,10.1,8.3,19.8,15.5,28c4.6,5.3,10,9.4,16.9,11.2c3.1,0.8,5.5,0.3,8.2-2
			c8.1-7.2,17.9-11.8,27.6-16.3c22-10.1,44.9-18,67.8-25.8c14.4-4.9,28.5-5.1,42.4,0.3c13.8,5.4,23.9,14.8,26.6,30
			c2.1,12.3-1.2,23.4-11.2,31.6c-31.1,25.5-64.6,47.4-100.1,66.2c-4.7,2.5-9.5,4.9-14.2,7.3c-1.2,0.4-2.4,0.3-3.7,0.1
			c-20-2.5-37.8-10.2-53.9-22.2c-6.5-4.8-12.6-10-18.5-15.6c-1.9-1.8-3.4-3.9-5.1-5.8c-0.7-0.7-1.4-1.4-2-2.1
			c-6.5-7.8-13-15.7-17.5-24.9c-4.6-9.5-7.9-19.6-9.5-30.2c-0.4-2.4-0.4-4.9-0.9-7.3C117.8,761.5,118.6,760.1,117.8,758.9z"/>
		<path style="fill:#58BA51;" d="M713,917.9c-5.7-0.4-11.4,0.5-17.1-0.6c-1.8-0.3-3-1.1-4-2.3c-12.4-15.5-25.6-30.2-38.8-45
			c-24.5-27.5-48.7-55.3-75.3-80.8c-6.2-5.9-8.7-13.9-9.4-22.3c-1.7-20.6,8.2-35.2,24.7-45.9c19.5-12.7,40-10.8,57.8,4.7
			c8.5,7.4,14.8,16.5,21.9,25.1c24.6,30.1,49.6,59.8,76.8,87.5c8.5,8.6,17.2,17.1,27.2,24c1.8,1.2,2.5,2.5,2.2,4.6
			c-0.6,3.7-0.8,7.4-0.6,11.2c-1,1.7,0.3,3.7-0.8,5.3c-15.1,20-35,31.3-59.9,34C716.2,917.9,714.5,917.3,713,917.9z"/>
		<path style="fill:#58BA51;" d="M875.4,807.7c-1.4,8.5-5.9,15.4-11.3,21.9c-9.1,11-20.1,19.7-33,26c-10.7,5.3-21.9,7.8-33.8,6.9
			c-0.9-0.7-2.2,0.1-3.1-0.6c-5.5-1-10.6-3.1-14.8-6.6c-20.4-17-38.3-36.5-55.8-56.3c-16.9-19.1-32.9-38.9-49.4-58.3
			c-6.8-8-7.3-16.8-5.6-25.9c3.9-21.6,25.4-36.9,47.4-34.7c17.3,1.7,30.9,10.4,43.5,21.5c23.9,21.2,47.5,42.8,70.7,64.8
			c5.1,4.8,10.4,4.7,16.2,3.5c7.4-1.5,12.7-6.1,17.1-11.9c3.9-5.3,6.5-11.2,8.9-17.2c0.6-1.4,0.8-3,2.7-4.4c0.1,2.7,0.2,4.8,0.3,7
			c0.5,5,0.1,9.9,0.2,14.9c0,1.4-0.3,2.7,0.3,4.1c0,12.1,0,24.2,0,36.2C875.1,801.5,876,804.7,875.4,807.7z"/>
		<path style="fill:#58BA51;" d="M298.5,926.4c-12.2-0.9-24-3.7-34.8-9.4c-15.7-8.3-25.5-21.4-30.3-38.3c-0.6-2,1.2-2.1,2.3-2.7
			c11.2-5.2,22-11.2,32.6-17.3c28.6-16.6,55.7-35.2,81.3-56.1c6.5-5.3,9.5-12.6,11.9-20.3c0.5-1.8,0.9-3.5,2.4-4.9
			c12.2-11.2,25.9-19.6,42.4-22.4c15.7-2.6,30.7-0.5,44.2,8.2c16.7,10.8,22.7,26.1,18.7,45.5c-1.1,5.5-3.7,9.6-7.8,13.2
			c-39.3,35-80.3,68-120.9,101.3c-3.6,2.9-7.5,1.6-11.1,2.8c-1.3,0.4-2.7,0.3-4.1,0.4c-1.3,0.5-2.7-0.1-4,0.5c-5.6,0-11.2,0-16.9,0
			C302.7,926.1,300.5,927,298.5,926.4z"/>
		<path style="fill:#58BA51;" d="M760.5,477c0,26.7,0,53.5,0,80.2c0,5.1,1,6,6.1,6c6.9,0,13.7,0.1,20.6,0c2.3,0,3,0.6,3,2.9
			c-0.1,23.7-0.1,47.5,0,71.2c0,1.3-0.2,2.4-0.9,3.6c-12,21-14.2,43.3-8.9,66.6c0.2,0.7,0.6,1.4-0.1,2.2c-7-6.1-13.6-12.5-20.9-18
			c-4.5-3.4-5.8-7.1-5.7-12.6c0.4-14.5,0.1-29,0.1-43.5c0-4.8-1.1-6-5.9-6c-32.1,0-64.2,0-96.3,0c-4.1,0-5.3,1.3-5.4,5.4
			c0,3.7-0.1,7.5,0,11.2c0,1.8-0.5,2.6-2.5,2.6c-11.4-0.1-22.7-0.1-34.1,0c-2.6,0-2.7-1.1-2.7-3.2c0-26.4,0.1-52.7,0-79.1
			c0-3,1.1-3.4,3.7-3.4c15.5,0.1,31,0.1,46.5,0.1c5.7,0,6.9-1.2,6.9-7c0-26.4,0-52.7-0.1-79.1c2.5-1.1,5.1-0.4,7.6-0.5
			c4.8-0.1,9.6-0.1,14.5,0c0.9,0,2-0.5,2.6,0.7c-0.1,1.1-0.2,2.2-0.2,3.3c0,25.3,0,50.6,0,75.9c0,6.1,0.5,6.6,6.5,6.6
			c11.7,0,23.4-0.1,35.2,0.1c2.6,0,4.6-0.7,5.9-2.9c0.6-1.3,0.3-2.7,0.3-4.1c0-25.3,0.1-50.6-0.1-75.9c0-3.1,0.9-4.1,4-3.9
			C746.8,477,753.7,476.1,760.5,477z"/>
		<path style="fill:#58BA51;" d="M895.7,664.4c-0.3,9.6-2.3,19-5.8,27.8c-3,7.5-7.4,14.4-12.8,20.6c-2.8,3.2-4.1,7-5.7,10.7
			c-3.5,8-6.8,16.1-10.5,24c-2.4,5.2-5.8,9.6-10.8,12.6c-6.5,3.9-11.5,3.4-17-1.8c-12.5-11.6-25.1-23.3-37.7-34.8
			c-1.9-1.7-3.3-3.7-4.1-6.1c-8.7-25.7-8.7-50.7,5.7-74.6c0.8-1.4,0.9-2.8,0.9-4.3c0-25.7,0-51.5,0-77.2c0-4.6-1.1-5.7-5.8-5.7
			c-7,0-14,0-21,0c-1.8,0-3.1,0-3.1-2.5c0.1-15.7,0-31.5,0-47.6c6.8,2.4,12.8,5.8,18.8,9.2c18.8,10.7,36.2,23.1,51.7,38.3
			c12.1,11.8,23,24.6,32,39c10.3,16.3,18.1,33.8,23,52.5c1.3,4.8,1.9,9.8,2.1,14.7C896,661,895.9,662.7,895.7,664.4z"/>
		<path style="fill:#58BA51;" d="M308.1,478.5c4.6-6.6,9.3-13.2,13.9-19.8c1.4-2,2.4-3.1,4.3-0.1c4.1,6.4,8.6,12.5,13.1,18.6
			c1.6,2.2,1.5,4.7,1.5,7.1c0,15.9,0.1,31.7,0,47.6c0,2.9,0.8,4.6,3.4,6.3c28.1,17.3,56.2,34.8,84.2,52.1c1.9,1.2,2.8,2.4,2.7,4.7
			c-0.2,7.4-0.1,14.7,0,22.1c0,1.9-0.6,3.3-1.9,4.6c-3.3,3.2-6.5,6.6-9.9,9.7c-2,1.9-2.7,3.9-2.7,6.6c0.1,34.7,0,69.5,0.1,104.2
			c0,3-0.3,4.3-3.9,4.4c-7,0.2-13.8,1.8-20.8,4.3c0-1.8,0-3.1,0-4.5c0-34.1,0-68.2,0.1-102.3c0-2.9-0.9-4.5-3.4-5.8
			c-25-13.2-51.5-22.2-79.4-27c-30.8-5.3-61.4-3.9-91.8,3.3c-0.5,0.1-1,0.2-1.6,0.3c0-7.2,0-14.3,0-21.5c0-1.4,0.9-1.9,1.8-2.5
			c15.9-10.3,32.2-19.9,48.3-29.8c13.2-8,26.4-16.1,39.5-24.2c0.7-0.4,1.2-1.2,1.8-1.8c0.5-4,0.3-8,0.3-11.9c0-13.6,0-27.2,0-40.9
			C307.9,481,307.7,479.7,308.1,478.5z"/>
		<path style="fill:#58BA51;" d="M363.3,767.8c-3.2-19.3-14.4-31.9-31.8-38.9c-15.2-6.1-30.8-6.3-46.5-1.1
			c-15.5,5.1-30.9,10.4-46.1,16.4c-0.9,0.4-1.8,0.8-3.2,0.3c4.3-5.4,8.1-11,11-17.2c10.2-21.9,8-43.7-1.1-65.2
			c-5.7-13.4-13.7-25.5-23.1-36.6c-0.7-0.9-1.4-1.7-2.1-2.6c-0.1-0.2-0.1-0.5-0.3-0.9c10.9-2.8,21.9-4.5,33-5.4
			c45.2-3.8,87.4,6.5,127.8,26.2c2.6,1.3,3.6,2.7,3.6,5.6c-0.1,34-0.1,68,0,102c0,2.5-0.6,4-3,5.2C375,758.8,369.1,763,363.3,767.8z
			"/>
		<path style="fill:#58BA51;" d="M438.9,610.8c0-6.3-0.1-12.7,0.1-19c0.1-3-0.9-4.8-3.5-6.4c-21.2-13-42.2-26.2-63.4-39.3
			c-1-0.6-2.2-1-3.3-1.5c-4.7-2.2-6.5-5.3-6.4-11c0.4-36.2,0.2-72.5,0.1-108.7c0-3.1,0.7-3.9,3.9-3.9c28,0.1,56,0.1,84,0
			c3.4,0,4.4,0.9,4.4,4.3c-0.1,55.9-0.1,111.7,0,167.6c0,2.5-0.8,4.2-2.5,5.9c-4.2,4.1-8.2,8.3-12.4,12.5
			C439.5,611.1,439.2,611,438.9,610.8z"/>
		<path style="fill:#58BA51;" d="M632.3,948.1c-11.6-0.6-21.9-4.8-31.7-10.8c-2.5-1.6-3.6-4.3-5.3-6.5
			c-10.7-14.2-21.5-28.3-32.2-42.5c-10.6-14.2-20.5-28.9-27.8-45.2c-1.6-3.6-2.7-7.2-2.5-11.2c0.3-6-0.6-12-2.5-17.7
			c-0.6-1.8-0.4-3.4,0.1-5.1c4.1-13.5,29-27.1,44.9-11.8c15.8,15.1,30.4,31.3,45.1,47.5c22,24.2,43.5,48.8,65,73.5
			c1.3,1.5,1.6,2.6,0.3,4.1c-8.6,9.7-18.4,17.7-30.6,22.5c-5,2-10.2,2.8-15.4,3.2C637.2,948.5,634.8,948.5,632.3,948.1z"/>
		<path style="fill:#58BA51;" d="M389.3,949.7c-17.7-1.9-36.1-10.7-46.2-18.8c41.4-33.9,83.2-67.3,123.1-103
			c10.2-9.2,12-20.5,11.7-32.8c-0.1-3.5,1-4.5,3.9-4.4c25.7,0.2,40.6,10.6,43.2,37.3c0.1,1,0.1,2,0.1,3c0.6,8.5-1.5,15.5-8.1,22.1
			c-28.6,28.8-56.6,58.1-84.6,87.5c-6.1,6.4-13.7,7.4-21.5,8.9c-5.9,1.1-11.9,0.7-17.9,0.8C391.9,949.4,390.5,950.2,389.3,949.7z"/>
		<path style="fill:#58BA51;" d="M746.2,682c-18.4-9.8-36.9-14.2-56.1-5c-19,9.1-29.6,24.2-29.9,46.6c-10.8-9.9-22.3-17.1-36.5-18.4
			c-14.2-1.3-26.7,3.6-38.2,11.7c-1.2-0.9-0.7-2.1-0.7-3.1c0-17.9,0-35.7-0.1-53.6c0-2.9,0.7-3.8,3.7-3.8
			c19.7,0.1,39.5,0.1,59.2,0.1c5.1,0,6.1-1,6.2-6.1c0-3.1,0.2-6.3-0.1-9.4c-0.3-2.9,0.8-3.5,3.6-3.5c21.2,0.1,42.5,0.1,63.7,0.1
			c7.5,0,15,0,22.5,0c1.7,0,2.7,0.2,2.7,2.4C746.2,653.7,746.2,667.5,746.2,682z"/>
		<path style="fill:#58BA51;" d="M436.6,947.2c27.5-28.5,54.8-56.9,82-85.3c1.9-2,3.5-2.3,5.9-1.3c7.5,3.1,12.4,12.7,10.4,20.6
			c-3.3,12.4-9.2,23.6-16,34.5c-7.6,12.2-16.3,23.7-26,34.3c-4.3,4.7-10.6,6.2-16.9,6.8C461.7,958.1,449,953.4,436.6,947.2z"/>
		<path style="fill:#58BA51;" d="M585.8,941.2c-3,4.7-5.8,9.5-10.6,12.7c-6.6,4.4-14,5-21.4,4.3c-5.9-0.5-11.5-2.7-17.2-4.5
			c-4.7-1.4-6.6-5.3-8.2-9.1c-2.4-6.1-4.1-12.5-6.2-18.7c-0.6-1.7,0.6-2.6,1.3-3.6c9-12.6,15.5-26.4,19.4-41.3
			c0.4-1.6,0.8-2,2.5-1.6c2,0.5,3.2,1.7,4.3,3.3c11.7,16.8,24.5,32.8,37.1,48.9c0.2,1.2,0.3,2.4-0.1,3.6c-0.1,0.9-0.1,1.9-0.2,2.8
			C585.8,939,586.6,940.3,585.8,941.2z"/>
		<path style="fill:#58BA51;" d="M728.1,555.7c-9.6,0-19.2-0.1-28.8,0c-2.6,0-3.3-0.7-3.3-3.3c0.1-19.2,0.1-38.4,0-57.6
			c0-2.9,0.9-3.6,3.6-3.4c3,0.2,6,0,8.9,0c1.5,0.7,3.2,0,4.7,0.5c4.7,0.2,9.3,1.3,14,1c1.5,0.3,1.4,1.5,1.4,2.6c0,19.5,0,39,0,58.6
			C728.6,554.6,728.6,555.3,728.1,555.7z"/>
		<path style="fill:#58BA51;" d="M656.2,524.3c0,9.5-0.1,19,0,28.5c0,2.3-0.6,3-2.9,2.9c-8.2-0.1-16.5-0.1-24.7,0
			c-2.4,0-2.9-0.8-2.9-3c0.1-17.7,0.1-35.5,0-53.2c0-1.9,0.3-2.7,2.5-3.1c8.6-1.5,17.2-2.3,25.9-3.3c2.6-0.3,2.1,1.4,2.1,2.8
			C656.3,505.3,656.2,514.8,656.2,524.3z"/>
		<path style="fill:#58BA51;" d="M881.5,519.7c-4.2-0.1-8.1-1.4-12-2.2c-2-0.4-1.8-2.3-1.6-3.7c1.8-9.1,14.1-20.3,23.4-21.8
			c6.1-1,11.8-0.3,17.5,1.6c2.1,0.7,3.1,1.8,2.4,4.1c-3.4,10.9-12.4,19.6-24.6,21.4C884.9,519.2,883.2,519.4,881.5,519.7z"/>
		<path style="fill:#58BA51;" d="M809.3,256.5c0.9,0.2,2.3,0.7,3.8,0.7c2.4-0.1,3.1,1,2.9,3.1c-1.1,11.3-6,21.3-18.1,26.8
			c-5.3,2.4-11,3.3-17,2.5c-2-0.3-2.4-1-2.4-2.8c-0.1-6.2,2-11.6,5.3-16.7C789.6,261,798.3,257.2,809.3,256.5z"/>
		<path style="fill:#58BA51;" d="M134.1,494.3c10.5,0.6,19.5,5.5,25.6,15.3c0.7,1.2,1.1,2.1-0.3,3.1c-12.7,9.5-30.5,9.3-42-2.8
			c-1.7-1.7-2.8-4-4.1-6.1c-0.5-0.7-1.1-1.2,0.2-2.3C118.9,497.2,126.1,494.3,134.1,494.3z"/>
		<path style="fill:#58BA51;" d="M525.8,142.1c-0.4,8.9-3.8,16.5-10.3,22.9c-1.7,1.7-2.8,1.6-4.6,0c-11-10.3-13-30-3.2-41.6
			c5.3-6.3,7.1-6.5,11.9,0.3C523.6,129.1,525.7,135.2,525.8,142.1z"/>
		<path style="fill:#58BA51;" d="M211.5,262.2c-0.1-5.2,0.6-5.8,7.1-5.7c12.4,0.3,24.1,8.8,28.2,20.6c1.1,3.2,1.4,6.5,1.9,9.8
			c0.3,1.6-0.4,2.4-2.2,2.6c-6.4,1-12.6,0-18.3-2.7C218.7,282.5,211.6,272.2,211.5,262.2z"/>
		<path style="fill:#58BA51;" d="M354.5,535.4c-2.5-0.3-3.8-2.6-5.9-3.7c-0.4-13.2-0.1-26.3-0.2-39.5c0-0.4,0.3-0.7,0.5-1
			c1.1,0,2.2,0,3.3,0.1c1.5,0.4,3,0.4,3,2.8c-0.1,13.2-0.1,26.4-0.1,39.7C355.1,534.4,355.1,535,354.5,535.4z"/>
		<path style="fill:#60BE59;" d="M533.7,857c-2.7-1.6-4.5-2.6-6.3-3.6c0.5-1.3,1.9-2.9,2.4-2.6C531.8,851.9,532.1,854.3,533.7,857z"
			/>
	</g>
</g>
</svg>
